STARTFONT 2.1
COMMENT
COMMENT Converted from OpenType font "PressStart2P-Regular.ttf" by "otf2bdf 3.0".
COMMENT
FONT -FreeType-Press Start 2P-Medium-R-Normal--10-70-100-100-P-88-ISO10646-1
SIZE 7 100 100
FONTBOUNDINGBOX 17 15 -7 -4
STARTPROPERTIES 19
FOUNDRY "FreeType"
FAMILY_NAME "Press Start 2P"
WEIGHT_NAME "Medium"
SLANT "R"
SETWIDTH_NAME "Normal"
ADD_STYLE_NAME ""
PIXEL_SIZE 10
POINT_SIZE 70
RESOLUTION_X 100
RESOLUTION_Y 100
SPACING "P"
AVERAGE_WIDTH 88
CHARSET_REGISTRY "ISO10646"
CHARSET_ENCODING "1"
FONT_ASCENT 10
FONT_DESCENT 0
COPYRIGHT "Copyright 2012 The Press Start 2P Project Authors (cody@zone38.net), with Reserved Font Name "Press Start 2P""
_OTF_FONTFILE "PressStart2P-Regular.ttf"
_OTF_PSNAME "PressStart2P-Regular"
ENDPROPERTIES
CHARS 656
STARTCHAR 0000
ENCODING 0
SWIDTH 0 0
DWIDTH 0 0
BBX 0 0 0 0
BITMAP
ENDCHAR
STARTCHAR 000D
ENCODING 13
SWIDTH 1028 0
DWIDTH 10 0
BBX 0 0 0 0
BITMAP
ENDCHAR
STARTCHAR 0020
ENCODING 32
SWIDTH 1028 0
DWIDTH 10 0
BBX 0 0 0 0
BITMAP
ENDCHAR
STARTCHAR 0021
ENCODING 33
SWIDTH 1028 0
DWIDTH 10 0
BBX 4 10 2 1
BITMAP
F0
F0
F0
F0
E0
E0
E0
00
00
E0
ENDCHAR
STARTCHAR 0022
ENCODING 34
SWIDTH 1028 0
DWIDTH 10 0
BBX 6 4 1 7
BITMAP
EC
EC
EC
EC
ENDCHAR
STARTCHAR 0023
ENCODING 35
SWIDTH 1028 0
DWIDTH 10 0
BBX 9 10 0 1
BITMAP
7600
7600
FF80
7600
7600
7600
7600
FF80
7600
7600
ENDCHAR
STARTCHAR 0024
ENCODING 36
SWIDTH 1028 0
DWIDTH 10 0
BBX 9 10 0 1
BITMAP
0800
0800
7E00
C800
4800
7E00
0B80
FE00
0800
0800
ENDCHAR
STARTCHAR 0025
ENCODING 37
SWIDTH 1028 0
DWIDTH 10 0
BBX 9 10 0 1
BITMAP
7180
3000
B200
C400
0000
0800
3380
4580
0400
8600
ENDCHAR
STARTCHAR 0026
ENCODING 38
SWIDTH 1028 0
DWIDTH 10 0
BBX 9 10 0 1
BITMAP
7800
4800
CC00
CC00
CC00
7800
CD80
C600
C600
7F80
ENDCHAR
STARTCHAR 0027
ENCODING 39
SWIDTH 1028 0
DWIDTH 10 0
BBX 3 4 2 7
BITMAP
E0
E0
E0
E0
ENDCHAR
STARTCHAR 0028
ENCODING 40
SWIDTH 1028 0
DWIDTH 10 0
BBX 5 10 2 1
BITMAP
18
10
30
E0
E0
E0
E0
30
30
18
ENDCHAR
STARTCHAR 0029
ENCODING 41
SWIDTH 1028 0
DWIDTH 10 0
BBX 5 10 1 1
BITMAP
E0
60
70
18
18
18
18
70
70
E0
ENDCHAR
STARTCHAR 002A
ENCODING 42
SWIDTH 1028 0
DWIDTH 10 0
BBX 9 6 0 3
BITMAP
7600
3C00
FF80
3C00
3C00
7600
ENDCHAR
STARTCHAR 002B
ENCODING 43
SWIDTH 1028 0
DWIDTH 10 0
BBX 8 7 1 3
BITMAP
18
18
18
FF
18
18
18
ENDCHAR
STARTCHAR 002C
ENCODING 44
SWIDTH 1028 0
DWIDTH 10 0
BBX 4 4 1 0
BITMAP
70
70
70
E0
ENDCHAR
STARTCHAR 002D
ENCODING 45
SWIDTH 1028 0
DWIDTH 10 0
BBX 8 1 1 6
BITMAP
FF
ENDCHAR
STARTCHAR 002E
ENCODING 46
SWIDTH 1028 0
DWIDTH 10 0
BBX 3 3 2 1
BITMAP
E0
E0
E0
ENDCHAR
STARTCHAR 002F
ENCODING 47
SWIDTH 1028 0
DWIDTH 10 0
BBX 9 10 0 1
BITMAP
0180
0000
0200
0400
0000
0800
3000
4000
0000
8000
ENDCHAR
STARTCHAR 0030
ENCODING 48
SWIDTH 1028 0
DWIDTH 10 0
BBX 9 10 0 1
BITMAP
3C00
2400
4600
C380
C380
C380
C380
7200
7200
3C00
ENDCHAR
STARTCHAR 0031
ENCODING 49
SWIDTH 1028 0
DWIDTH 10 0
BBX 8 10 1 1
BITMAP
18
18
78
18
18
18
18
18
18
FF
ENDCHAR
STARTCHAR 0032
ENCODING 50
SWIDTH 1028 0
DWIDTH 10 0
BBX 9 10 0 1
BITMAP
7E00
4200
C380
0780
0780
3E00
7C00
F000
F000
FF80
ENDCHAR
STARTCHAR 0033
ENCODING 51
SWIDTH 1028 0
DWIDTH 10 0
BBX 9 10 0 1
BITMAP
7F80
0600
0600
0C00
0C00
3380
0380
C380
4200
7E00
ENDCHAR
STARTCHAR 0034
ENCODING 52
SWIDTH 1028 0
DWIDTH 10 0
BBX 9 10 0 1
BITMAP
0E00
0E00
3E00
7600
C600
C600
FF80
0600
0600
0600
ENDCHAR
STARTCHAR 0035
ENCODING 53
SWIDTH 1028 0
DWIDTH 10 0
BBX 9 10 0 1
BITMAP
FE00
C000
C000
FE00
0380
0380
0380
C380
4200
7E00
ENDCHAR
STARTCHAR 0036
ENCODING 54
SWIDTH 1028 0
DWIDTH 10 0
BBX 9 10 0 1
BITMAP
3E00
7000
7000
C000
C000
FF80
C380
C380
4200
7E00
ENDCHAR
STARTCHAR 0037
ENCODING 55
SWIDTH 1028 0
DWIDTH 10 0
BBX 9 10 0 1
BITMAP
FF80
C380
C380
0600
0C00
0C00
3800
3800
3800
3800
ENDCHAR
STARTCHAR 0038
ENCODING 56
SWIDTH 1028 0
DWIDTH 10 0
BBX 9 10 0 1
BITMAP
7C00
4200
C200
F200
F200
7C00
8F80
8F80
8380
7E00
ENDCHAR
STARTCHAR 0039
ENCODING 57
SWIDTH 1028 0
DWIDTH 10 0
BBX 9 10 0 1
BITMAP
7E00
4200
C380
C380
C380
7F80
0380
0600
0600
7C00
ENDCHAR
STARTCHAR 003A
ENCODING 58
SWIDTH 1028 0
DWIDTH 10 0
BBX 3 7 2 3
BITMAP
E0
E0
E0
00
E0
E0
E0
ENDCHAR
STARTCHAR 003B
ENCODING 59
SWIDTH 1028 0
DWIDTH 10 0
BBX 4 8 1 1
BITMAP
70
70
70
00
70
70
70
E0
ENDCHAR
STARTCHAR 003C
ENCODING 60
SWIDTH 1028 0
DWIDTH 10 0
BBX 6 10 1 1
BITMAP
0C
08
18
70
70
E0
70
18
18
0C
ENDCHAR
STARTCHAR 003D
ENCODING 61
SWIDTH 1028 0
DWIDTH 10 0
BBX 9 4 0 4
BITMAP
FF80
0000
0000
FF80
ENDCHAR
STARTCHAR 003E
ENCODING 62
SWIDTH 1028 0
DWIDTH 10 0
BBX 6 10 1 1
BITMAP
E0
60
70
18
18
0C
18
70
70
E0
ENDCHAR
STARTCHAR 003F
ENCODING 63
SWIDTH 1028 0
DWIDTH 10 0
BBX 9 10 0 1
BITMAP
7E00
7E00
FF80
C380
0600
0600
3C00
0000
0000
3C00
ENDCHAR
STARTCHAR 0040
ENCODING 64
SWIDTH 1028 0
DWIDTH 10 0
BBX 9 10 0 1
BITMAP
7E00
0000
8180
BD80
B580
B580
BF80
8000
8000
7E00
ENDCHAR
STARTCHAR 0041
ENCODING 65
SWIDTH 1028 0
DWIDTH 10 0
BBX 9 10 0 1
BITMAP
3C00
7600
7600
C380
C380
C380
FF80
C380
C380
C380
ENDCHAR
STARTCHAR 0042
ENCODING 66
SWIDTH 1028 0
DWIDTH 10 0
BBX 9 10 0 1
BITMAP
FE00
C200
C380
C380
C380
FE00
C380
C380
C380
FE00
ENDCHAR
STARTCHAR 0043
ENCODING 67
SWIDTH 1028 0
DWIDTH 10 0
BBX 9 10 0 1
BITMAP
3E00
3200
7380
C000
C000
C000
C000
7380
3200
3E00
ENDCHAR
STARTCHAR 0044
ENCODING 68
SWIDTH 1028 0
DWIDTH 10 0
BBX 9 10 0 1
BITMAP
FC00
C400
C600
C380
C380
C380
C380
C600
C600
FC00
ENDCHAR
STARTCHAR 0045
ENCODING 69
SWIDTH 1028 0
DWIDTH 10 0
BBX 9 10 0 1
BITMAP
FF80
C000
C000
C000
C000
FE00
C000
C000
C000
FF80
ENDCHAR
STARTCHAR 0046
ENCODING 70
SWIDTH 1028 0
DWIDTH 10 0
BBX 9 10 0 1
BITMAP
FF80
C000
C000
C000
C000
FE00
C000
C000
C000
C000
ENDCHAR
STARTCHAR 0047
ENCODING 71
SWIDTH 1028 0
DWIDTH 10 0
BBX 9 10 0 1
BITMAP
3F80
3000
7000
C000
C000
C780
C380
7380
7380
3F80
ENDCHAR
STARTCHAR 0048
ENCODING 72
SWIDTH 1028 0
DWIDTH 10 0
BBX 9 10 0 1
BITMAP
C380
C380
C380
C380
C380
FF80
C380
C380
C380
C380
ENDCHAR
STARTCHAR 0049
ENCODING 73
SWIDTH 1028 0
DWIDTH 10 0
BBX 8 10 1 1
BITMAP
FF
18
18
18
18
18
18
18
18
FF
ENDCHAR
STARTCHAR 004A
ENCODING 74
SWIDTH 1028 0
DWIDTH 10 0
BBX 9 10 0 1
BITMAP
0380
0380
0380
0380
0380
0380
0380
C380
4200
7E00
ENDCHAR
STARTCHAR 004B
ENCODING 75
SWIDTH 1028 0
DWIDTH 10 0
BBX 9 10 0 1
BITMAP
C380
C200
C600
CC00
CC00
F800
FC00
CE00
C600
C780
ENDCHAR
STARTCHAR 004C
ENCODING 76
SWIDTH 1028 0
DWIDTH 10 0
BBX 8 10 1 1
BITMAP
E0
E0
E0
E0
E0
E0
E0
E0
E0
FF
ENDCHAR
STARTCHAR 004D
ENCODING 77
SWIDTH 1028 0
DWIDTH 10 0
BBX 9 10 0 1
BITMAP
C380
C380
F780
FF80
FF80
CB80
CB80
C380
C380
C380
ENDCHAR
STARTCHAR 004E
ENCODING 78
SWIDTH 1028 0
DWIDTH 10 0
BBX 9 10 0 1
BITMAP
C380
C380
F380
FB80
FB80
CF80
C780
C780
C380
C380
ENDCHAR
STARTCHAR 004F
ENCODING 79
SWIDTH 1028 0
DWIDTH 10 0
BBX 9 10 0 1
BITMAP
7E00
4200
C380
C380
C380
C380
C380
C380
C380
7E00
ENDCHAR
STARTCHAR 0050
ENCODING 80
SWIDTH 1028 0
DWIDTH 10 0
BBX 9 10 0 1
BITMAP
FE00
C200
C380
C380
C380
C380
FE00
C000
C000
C000
ENDCHAR
STARTCHAR 0051
ENCODING 81
SWIDTH 1028 0
DWIDTH 10 0
BBX 9 10 0 1
BITMAP
7E00
4200
C380
C380
C380
C380
CF80
C600
C600
7D80
ENDCHAR
STARTCHAR 0052
ENCODING 82
SWIDTH 1028 0
DWIDTH 10 0
BBX 9 10 0 1
BITMAP
FE00
C200
C380
C380
C380
C780
FC00
CE00
CE00
C780
ENDCHAR
STARTCHAR 0053
ENCODING 83
SWIDTH 1028 0
DWIDTH 10 0
BBX 9 10 0 1
BITMAP
7E00
4200
C380
C000
C000
3F80
0380
C380
4200
7E00
ENDCHAR
STARTCHAR 0054
ENCODING 84
SWIDTH 1028 0
DWIDTH 10 0
BBX 8 10 1 1
BITMAP
FF
18
18
18
18
18
18
18
18
18
ENDCHAR
STARTCHAR 0055
ENCODING 85
SWIDTH 1028 0
DWIDTH 10 0
BBX 9 10 0 1
BITMAP
C380
C380
C380
C380
C380
C380
C380
C380
4200
7E00
ENDCHAR
STARTCHAR 0056
ENCODING 86
SWIDTH 1028 0
DWIDTH 10 0
BBX 9 10 0 1
BITMAP
C380
C380
C380
C380
C380
7600
7E00
7E00
3C00
0800
ENDCHAR
STARTCHAR 0057
ENCODING 87
SWIDTH 1028 0
DWIDTH 10 0
BBX 9 10 0 1
BITMAP
CB80
CB80
CB80
CB80
CB80
CB80
FF80
F780
F780
4200
ENDCHAR
STARTCHAR 0058
ENCODING 88
SWIDTH 1028 0
DWIDTH 10 0
BBX 9 10 0 1
BITMAP
C380
C380
C380
7600
7600
3C00
7600
C380
C380
C380
ENDCHAR
STARTCHAR 0059
ENCODING 89
SWIDTH 1028 0
DWIDTH 10 0
BBX 8 10 1 1
BITMAP
E7
E7
E7
E7
64
7C
18
18
18
18
ENDCHAR
STARTCHAR 005A
ENCODING 90
SWIDTH 1028 0
DWIDTH 10 0
BBX 9 10 0 1
BITMAP
FF80
0780
0780
0E00
3C00
3C00
7800
F000
F000
FF80
ENDCHAR
STARTCHAR 005B
ENCODING 91
SWIDTH 1028 0
DWIDTH 10 0
BBX 5 10 2 1
BITMAP
F8
E0
E0
E0
E0
E0
E0
E0
E0
F8
ENDCHAR
STARTCHAR 005C
ENCODING 92
SWIDTH 1028 0
DWIDTH 10 0
BBX 9 10 0 1
BITMAP
8000
0000
4000
3000
0000
0800
0400
0200
0000
0180
ENDCHAR
STARTCHAR 005D
ENCODING 93
SWIDTH 1028 0
DWIDTH 10 0
BBX 5 10 1 1
BITMAP
F8
18
18
18
18
18
18
18
18
F8
ENDCHAR
STARTCHAR 005E
ENCODING 94
SWIDTH 1028 0
DWIDTH 10 0
BBX 6 2 1 8
BITMAP
78
EC
ENDCHAR
STARTCHAR 005F
ENCODING 95
SWIDTH 1028 0
DWIDTH 10 0
BBX 9 1 0 0
BITMAP
FF80
ENDCHAR
STARTCHAR 0060
ENCODING 96
SWIDTH 1028 0
DWIDTH 10 0
BBX 2 2 4 8
BITMAP
80
40
ENDCHAR
STARTCHAR 0061
ENCODING 97
SWIDTH 1028 0
DWIDTH 10 0
BBX 9 7 0 1
BITMAP
7E00
0380
0380
7F80
C380
4380
7F80
ENDCHAR
STARTCHAR 0062
ENCODING 98
SWIDTH 1028 0
DWIDTH 10 0
BBX 9 10 0 1
BITMAP
C000
C000
C000
FE00
C380
C380
C380
C380
4200
7E00
ENDCHAR
STARTCHAR 0063
ENCODING 99
SWIDTH 1028 0
DWIDTH 10 0
BBX 9 7 0 1
BITMAP
7F80
4000
C000
C000
C000
C000
7F80
ENDCHAR
STARTCHAR 0064
ENCODING 100
SWIDTH 1028 0
DWIDTH 10 0
BBX 9 10 0 1
BITMAP
0380
0380
0380
7F80
4380
C380
C380
C380
C380
7F80
ENDCHAR
STARTCHAR 0065
ENCODING 101
SWIDTH 1028 0
DWIDTH 10 0
BBX 9 7 0 1
BITMAP
7E00
4200
C380
FF80
C000
C000
7E00
ENDCHAR
STARTCHAR 0066
ENCODING 102
SWIDTH 1028 0
DWIDTH 10 0
BBX 8 10 1 1
BITMAP
0F
08
18
FF
18
18
18
18
18
18
ENDCHAR
STARTCHAR 0067
ENCODING 103
SWIDTH 1028 0
DWIDTH 10 0
BBX 9 8 0 0
BITMAP
7F80
C380
C380
C380
7F80
0380
0380
7E00
ENDCHAR
STARTCHAR 0068
ENCODING 104
SWIDTH 1028 0
DWIDTH 10 0
BBX 9 10 0 1
BITMAP
C000
C000
C000
FE00
C200
C380
C380
C380
C380
C380
ENDCHAR
STARTCHAR 0069
ENCODING 105
SWIDTH 1028 0
DWIDTH 10 0
BBX 8 10 1 1
BITMAP
18
00
00
78
18
18
18
18
18
FF
ENDCHAR
STARTCHAR 006A
ENCODING 106
SWIDTH 1028 0
DWIDTH 10 0
BBX 6 11 1 0
BITMAP
0C
00
00
1C
0C
0C
0C
0C
0C
0C
F8
ENDCHAR
STARTCHAR 006B
ENCODING 107
SWIDTH 1028 0
DWIDTH 10 0
BBX 9 10 0 1
BITMAP
C000
C000
C000
C380
C200
C600
FC00
C600
C600
C380
ENDCHAR
STARTCHAR 006C
ENCODING 108
SWIDTH 1028 0
DWIDTH 10 0
BBX 8 10 1 1
BITMAP
78
18
18
18
18
18
18
18
18
FF
ENDCHAR
STARTCHAR 006D
ENCODING 109
SWIDTH 1028 0
DWIDTH 10 0
BBX 9 7 0 1
BITMAP
FE00
BA00
BB80
BB80
BB80
BB80
BB80
ENDCHAR
STARTCHAR 006E
ENCODING 110
SWIDTH 1028 0
DWIDTH 10 0
BBX 9 7 0 1
BITMAP
FE00
C200
C380
C380
C380
C380
C380
ENDCHAR
STARTCHAR 006F
ENCODING 111
SWIDTH 1028 0
DWIDTH 10 0
BBX 9 7 0 1
BITMAP
7E00
4200
C380
C380
C380
C380
7E00
ENDCHAR
STARTCHAR 0070
ENCODING 112
SWIDTH 1028 0
DWIDTH 10 0
BBX 9 8 0 0
BITMAP
FE00
C380
C380
C380
FE00
C000
C000
C000
ENDCHAR
STARTCHAR 0071
ENCODING 113
SWIDTH 1028 0
DWIDTH 10 0
BBX 9 8 0 0
BITMAP
7F80
C380
C380
C380
7F80
0380
0380
0380
ENDCHAR
STARTCHAR 0072
ENCODING 114
SWIDTH 1028 0
DWIDTH 10 0
BBX 8 7 1 1
BITMAP
EF
E0
F0
E0
E0
E0
E0
ENDCHAR
STARTCHAR 0073
ENCODING 115
SWIDTH 1028 0
DWIDTH 10 0
BBX 9 7 0 1
BITMAP
7E00
4000
C000
7E00
0380
0200
FE00
ENDCHAR
STARTCHAR 0074
ENCODING 116
SWIDTH 1028 0
DWIDTH 10 0
BBX 8 10 1 1
BITMAP
18
18
18
FF
18
18
18
18
18
18
ENDCHAR
STARTCHAR 0075
ENCODING 117
SWIDTH 1028 0
DWIDTH 10 0
BBX 9 7 0 1
BITMAP
C380
C380
C380
C380
C380
4380
7F80
ENDCHAR
STARTCHAR 0076
ENCODING 118
SWIDTH 1028 0
DWIDTH 10 0
BBX 8 7 1 1
BITMAP
E7
E7
E7
E7
7C
7C
18
ENDCHAR
STARTCHAR 0077
ENCODING 119
SWIDTH 1028 0
DWIDTH 10 0
BBX 9 7 0 1
BITMAP
CB80
CB80
CB80
CB80
CB80
4200
7600
ENDCHAR
STARTCHAR 0078
ENCODING 120
SWIDTH 1028 0
DWIDTH 10 0
BBX 9 7 0 1
BITMAP
C380
4200
7600
3C00
7600
7600
C380
ENDCHAR
STARTCHAR 0079
ENCODING 121
SWIDTH 1028 0
DWIDTH 10 0
BBX 9 8 0 0
BITMAP
C380
C380
C380
C380
7F80
0380
0380
7E00
ENDCHAR
STARTCHAR 007A
ENCODING 122
SWIDTH 1028 0
DWIDTH 10 0
BBX 9 7 0 1
BITMAP
FF80
0E00
0E00
3C00
7800
7800
FF80
ENDCHAR
STARTCHAR 007B
ENCODING 123
SWIDTH 1028 0
DWIDTH 10 0
BBX 5 10 2 1
BITMAP
18
10
30
30
30
E0
30
30
30
18
ENDCHAR
STARTCHAR 007C
ENCODING 124
SWIDTH 1028 0
DWIDTH 10 0
BBX 2 10 4 1
BITMAP
C0
C0
C0
C0
C0
C0
C0
C0
C0
C0
ENDCHAR
STARTCHAR 007D
ENCODING 125
SWIDTH 1028 0
DWIDTH 10 0
BBX 5 10 1 1
BITMAP
E0
60
70
70
70
18
70
70
70
E0
ENDCHAR
STARTCHAR 007E
ENCODING 126
SWIDTH 1028 0
DWIDTH 10 0
BBX 9 4 0 4
BITMAP
7800
3800
BD80
0E00
ENDCHAR
STARTCHAR 007F
ENCODING 127
SWIDTH 1028 0
DWIDTH 10 0
BBX 6 3 1 1
BITMAP
EC
EC
EC
ENDCHAR
STARTCHAR 00A0
ENCODING 160
SWIDTH 1028 0
DWIDTH 10 0
BBX 0 0 0 0
BITMAP
ENDCHAR
STARTCHAR 00A1
ENCODING 161
SWIDTH 1028 0
DWIDTH 10 0
BBX 4 10 2 1
BITMAP
30
00
00
30
30
30
F0
F0
F0
F0
ENDCHAR
STARTCHAR 00A2
ENCODING 162
SWIDTH 1028 0
DWIDTH 10 0
BBX 9 10 0 1
BITMAP
0800
0800
7E00
CB80
C800
C800
CB80
7E00
0800
0800
ENDCHAR
STARTCHAR 00A3
ENCODING 163
SWIDTH 1028 0
DWIDTH 10 0
BBX 9 10 0 1
BITMAP
3E00
3200
7380
7000
7000
FE00
7000
7000
7000
FF80
ENDCHAR
STARTCHAR 00A4
ENCODING 164
SWIDTH 1028 0
DWIDTH 10 0
BBX 8 6 1 3
BITMAP
9B
64
64
64
64
9B
ENDCHAR
STARTCHAR 00A5
ENCODING 165
SWIDTH 1028 0
DWIDTH 10 0
BBX 8 10 1 1
BITMAP
E7
E7
E7
7C
7C
FF
18
FF
18
18
ENDCHAR
STARTCHAR 00A6
ENCODING 166
SWIDTH 1028 0
DWIDTH 10 0
BBX 2 10 4 1
BITMAP
C0
C0
C0
C0
00
00
C0
C0
C0
C0
ENDCHAR
STARTCHAR 00A7
ENCODING 167
SWIDTH 1028 0
DWIDTH 10 0
BBX 8 10 1 1
BITMAP
7C
64
E7
F8
64
64
1F
E7
64
7C
ENDCHAR
STARTCHAR 00A8
ENCODING 168
SWIDTH 1028 0
DWIDTH 10 0
BBX 6 1 1 10
BITMAP
EC
ENDCHAR
STARTCHAR 00A9
ENCODING 169
SWIDTH 1028 0
DWIDTH 10 0
BBX 10 10 0 0
BITMAP
3E00
4180
8CC0
B0C0
B0C0
B0C0
8CC0
0000
4180
3E00
ENDCHAR
STARTCHAR 00AA
ENCODING 170
SWIDTH 1028 0
DWIDTH 10 0
BBX 6 5 1 6
BITMAP
F8
7C
7C
EC
7C
ENDCHAR
STARTCHAR 00AB
ENCODING 171
SWIDTH 1028 0
DWIDTH 10 0
BBX 9 6 0 3
BITMAP
3B80
7600
CC00
7600
7600
3B80
ENDCHAR
STARTCHAR 00AC
ENCODING 172
SWIDTH 1028 0
DWIDTH 10 0
BBX 8 4 1 4
BITMAP
FF
07
07
07
ENDCHAR
STARTCHAR 00AD
ENCODING 173
SWIDTH 1028 0
DWIDTH 10 0
BBX 8 1 1 6
BITMAP
FF
ENDCHAR
STARTCHAR 00AE
ENCODING 174
SWIDTH 1028 0
DWIDTH 10 0
BBX 10 10 0 0
BITMAP
3E00
4180
BCC0
B0C0
B2C0
BCC0
B2C0
0000
4180
3E00
ENDCHAR
STARTCHAR 00AF
ENCODING 175
SWIDTH 1028 0
DWIDTH 10 0
BBX 6 1 1 10
BITMAP
FC
ENDCHAR
STARTCHAR 00B0
ENCODING 176
SWIDTH 1028 0
DWIDTH 10 0
BBX 4 4 2 7
BITMAP
20
00
D0
20
ENDCHAR
STARTCHAR 00B1
ENCODING 177
SWIDTH 1028 0
DWIDTH 10 0
BBX 8 10 1 1
BITMAP
18
18
18
FF
18
18
18
00
00
FF
ENDCHAR
STARTCHAR 00B2
ENCODING 178
SWIDTH 1028 0
DWIDTH 10 0
BBX 5 5 2 6
BITMAP
F0
10
18
30
F8
ENDCHAR
STARTCHAR 00B3
ENCODING 179
SWIDTH 1028 0
DWIDTH 10 0
BBX 5 5 2 6
BITMAP
F8
30
30
18
F0
ENDCHAR
STARTCHAR 00B4
ENCODING 180
SWIDTH 1028 0
DWIDTH 10 0
BBX 2 2 4 8
BITMAP
40
80
ENDCHAR
STARTCHAR 00B5
ENCODING 181
SWIDTH 1028 0
DWIDTH 10 0
BBX 9 8 0 0
BITMAP
C600
C600
C600
C600
C600
C200
FB80
C000
ENDCHAR
STARTCHAR 00B6
ENCODING 182
SWIDTH 1028 0
DWIDTH 10 0
BBX 8 10 1 1
BITMAP
7F
6B
EB
8B
8B
EB
7F
0B
0B
0B
ENDCHAR
STARTCHAR 00B7
ENCODING 183
SWIDTH 1028 0
DWIDTH 10 0
BBX 3 3 2 4
BITMAP
E0
E0
E0
ENDCHAR
STARTCHAR 00B8
ENCODING 184
SWIDTH 1028 0
DWIDTH 10 0
BBX 4 2 2 0
BITMAP
10
E0
ENDCHAR
STARTCHAR 00B9
ENCODING 185
SWIDTH 1028 0
DWIDTH 10 0
BBX 5 5 2 6
BITMAP
30
F0
30
30
F8
ENDCHAR
STARTCHAR 00BA
ENCODING 186
SWIDTH 1028 0
DWIDTH 10 0
BBX 6 5 1 6
BITMAP
78
EC
EC
EC
78
ENDCHAR
STARTCHAR 00BB
ENCODING 187
SWIDTH 1028 0
DWIDTH 10 0
BBX 9 6 0 3
BITMAP
CC00
7600
3B80
7600
7600
CC00
ENDCHAR
STARTCHAR 00BC
ENCODING 188
SWIDTH 1028 0
DWIDTH 10 0
BBX 9 9 0 2
BITMAP
4180
C200
4000
4400
4980
3380
0380
4780
8180
ENDCHAR
STARTCHAR 00BD
ENCODING 189
SWIDTH 1028 0
DWIDTH 10 0
BBX 9 9 0 2
BITMAP
4180
C200
4000
4400
4B80
3180
0000
4200
8780
ENDCHAR
STARTCHAR 00BE
ENCODING 190
SWIDTH 1028 0
DWIDTH 10 0
BBX 9 9 0 2
BITMAP
F180
4200
0000
3400
C980
3380
0380
4780
8180
ENDCHAR
STARTCHAR 00BF
ENCODING 191
SWIDTH 1028 0
DWIDTH 10 0
BBX 9 10 0 1
BITMAP
3C00
0000
0000
3C00
7000
7000
C380
FF80
FF80
7E00
ENDCHAR
STARTCHAR 00C0
ENCODING 192
SWIDTH 1028 0
DWIDTH 10 0
BBX 9 10 0 1
BITMAP
3000
0000
0800
3C00
7600
7600
C380
FF80
C380
C380
ENDCHAR
STARTCHAR 00C1
ENCODING 193
SWIDTH 1028 0
DWIDTH 10 0
BBX 9 10 0 1
BITMAP
0400
0000
0800
3C00
7600
7600
C380
FF80
C380
C380
ENDCHAR
STARTCHAR 00C2
ENCODING 194
SWIDTH 1028 0
DWIDTH 10 0
BBX 9 10 0 1
BITMAP
3C00
3400
7600
3C00
7600
7600
C380
FF80
C380
C380
ENDCHAR
STARTCHAR 00C3
ENCODING 195
SWIDTH 1028 0
DWIDTH 10 0
BBX 9 10 0 1
BITMAP
3A00
0800
4C00
3C00
7600
7600
C380
FF80
C380
C380
ENDCHAR
STARTCHAR 00C4
ENCODING 196
SWIDTH 1028 0
DWIDTH 10 0
BBX 9 10 0 1
BITMAP
7600
0000
0000
3C00
7600
7600
C380
FF80
C380
C380
ENDCHAR
STARTCHAR 00C5
ENCODING 197
SWIDTH 1028 0
DWIDTH 10 0
BBX 9 10 0 1
BITMAP
0800
1800
3400
3C00
7600
7600
C380
FF80
C380
C380
ENDCHAR
STARTCHAR 00C6
ENCODING 198
SWIDTH 1028 0
DWIDTH 10 0
BBX 9 10 0 1
BITMAP
3F80
7C00
7C00
CC00
CC00
CF80
FC00
CC00
CC00
CF80
ENDCHAR
STARTCHAR 00C7
ENCODING 199
SWIDTH 1028 0
DWIDTH 10 0
BBX 9 11 0 0
BITMAP
3E00
3200
7380
C000
C000
C000
7380
3E00
0400
0400
3800
ENDCHAR
STARTCHAR 00C8
ENCODING 200
SWIDTH 1028 0
DWIDTH 10 0
BBX 9 10 0 1
BITMAP
3000
0800
0800
FF80
C000
C000
FE00
C000
C000
FF80
ENDCHAR
STARTCHAR 00C9
ENCODING 201
SWIDTH 1028 0
DWIDTH 10 0
BBX 9 10 0 1
BITMAP
0400
0800
0800
FF80
C000
C000
FE00
C000
C000
FF80
ENDCHAR
STARTCHAR 00CA
ENCODING 202
SWIDTH 1028 0
DWIDTH 10 0
BBX 9 10 0 1
BITMAP
3C00
7600
7600
FF80
C000
C000
FE00
C000
C000
FF80
ENDCHAR
STARTCHAR 00CB
ENCODING 203
SWIDTH 1028 0
DWIDTH 10 0
BBX 9 10 0 1
BITMAP
7600
0000
0000
FF80
C000
C000
FE00
C000
C000
FF80
ENDCHAR
STARTCHAR 00CC
ENCODING 204
SWIDTH 1028 0
DWIDTH 10 0
BBX 8 10 1 1
BITMAP
10
08
08
FF
18
18
18
18
18
FF
ENDCHAR
STARTCHAR 00CD
ENCODING 205
SWIDTH 1028 0
DWIDTH 10 0
BBX 8 10 1 1
BITMAP
08
10
10
FF
18
18
18
18
18
FF
ENDCHAR
STARTCHAR 00CE
ENCODING 206
SWIDTH 1028 0
DWIDTH 10 0
BBX 8 10 1 1
BITMAP
18
18
7C
FF
18
18
18
18
18
FF
ENDCHAR
STARTCHAR 00CF
ENCODING 207
SWIDTH 1028 0
DWIDTH 10 0
BBX 8 10 1 1
BITMAP
E7
00
00
FF
18
18
18
18
18
FF
ENDCHAR
STARTCHAR 00D0
ENCODING 208
SWIDTH 1028 0
DWIDTH 10 0
BBX 9 10 0 1
BITMAP
7C00
7400
7600
7380
7380
FB80
7380
7600
7600
7C00
ENDCHAR
STARTCHAR 00D1
ENCODING 209
SWIDTH 1028 0
DWIDTH 10 0
BBX 9 10 0 1
BITMAP
3A00
0800
4C00
F380
F380
FB80
FF80
CF80
CF80
C780
ENDCHAR
STARTCHAR 00D2
ENCODING 210
SWIDTH 1028 0
DWIDTH 10 0
BBX 9 10 0 1
BITMAP
3000
0800
0800
7E00
4200
C380
C380
C380
C380
7E00
ENDCHAR
STARTCHAR 00D3
ENCODING 211
SWIDTH 1028 0
DWIDTH 10 0
BBX 9 10 0 1
BITMAP
0400
0800
0800
7E00
4200
C380
C380
C380
C380
7E00
ENDCHAR
STARTCHAR 00D4
ENCODING 212
SWIDTH 1028 0
DWIDTH 10 0
BBX 9 10 0 1
BITMAP
3C00
7600
7600
7E00
4200
C380
C380
C380
C380
7E00
ENDCHAR
STARTCHAR 00D5
ENCODING 213
SWIDTH 1028 0
DWIDTH 10 0
BBX 9 10 0 1
BITMAP
3A00
4C00
4C00
7E00
4200
C380
C380
C380
C380
7E00
ENDCHAR
STARTCHAR 00D6
ENCODING 214
SWIDTH 1028 0
DWIDTH 10 0
BBX 9 10 0 1
BITMAP
7600
0000
0000
7E00
4200
C380
C380
C380
C380
7E00
ENDCHAR
STARTCHAR 00D7
ENCODING 215
SWIDTH 1028 0
DWIDTH 10 0
BBX 6 6 1 3
BITMAP
84
68
10
00
68
84
ENDCHAR
STARTCHAR 00D8
ENCODING 216
SWIDTH 1028 0
DWIDTH 10 0
BBX 9 10 0 1
BITMAP
7E00
4200
C380
C780
C380
CB80
F380
C380
C380
7E00
ENDCHAR
STARTCHAR 00D9
ENCODING 217
SWIDTH 1028 0
DWIDTH 10 0
BBX 9 10 0 1
BITMAP
3000
0000
0800
C380
C380
C380
C380
C380
4200
7E00
ENDCHAR
STARTCHAR 00DA
ENCODING 218
SWIDTH 1028 0
DWIDTH 10 0
BBX 9 10 0 1
BITMAP
0400
0000
0800
C380
C380
C380
C380
C380
4200
7E00
ENDCHAR
STARTCHAR 00DB
ENCODING 219
SWIDTH 1028 0
DWIDTH 10 0
BBX 9 10 0 1
BITMAP
3C00
3400
7600
0000
0000
C380
C380
C380
C380
7E00
ENDCHAR
STARTCHAR 00DC
ENCODING 220
SWIDTH 1028 0
DWIDTH 10 0
BBX 9 10 0 1
BITMAP
7600
0000
0000
C380
C380
C380
C380
C380
4200
7E00
ENDCHAR
STARTCHAR 00DD
ENCODING 221
SWIDTH 1028 0
DWIDTH 10 0
BBX 8 10 1 1
BITMAP
08
00
10
E7
E7
E7
7C
18
18
18
ENDCHAR
STARTCHAR 00DE
ENCODING 222
SWIDTH 1028 0
DWIDTH 10 0
BBX 9 10 0 1
BITMAP
C000
C000
FE00
C380
C380
C380
C380
FE00
C000
C000
ENDCHAR
STARTCHAR 00DF
ENCODING 223
SWIDTH 1028 0
DWIDTH 10 0
BBX 8 10 1 1
BITMAP
7C
64
E7
E7
E7
EF
E7
F7
E4
EC
ENDCHAR
STARTCHAR 00E0
ENCODING 224
SWIDTH 1028 0
DWIDTH 10 0
BBX 9 10 0 1
BITMAP
3000
0800
0800
7E00
0380
0380
7F80
C380
4380
7F80
ENDCHAR
STARTCHAR 00E1
ENCODING 225
SWIDTH 1028 0
DWIDTH 10 0
BBX 9 10 0 1
BITMAP
0400
0800
0800
7E00
0380
0380
7F80
C380
4380
7F80
ENDCHAR
STARTCHAR 00E2
ENCODING 226
SWIDTH 1028 0
DWIDTH 10 0
BBX 9 10 0 1
BITMAP
3C00
7600
7600
7E00
0380
0380
7F80
C380
4380
7F80
ENDCHAR
STARTCHAR 00E3
ENCODING 227
SWIDTH 1028 0
DWIDTH 10 0
BBX 9 10 0 1
BITMAP
3A00
4C00
4C00
7E00
0380
0380
7F80
C380
4380
7F80
ENDCHAR
STARTCHAR 00E4
ENCODING 228
SWIDTH 1028 0
DWIDTH 10 0
BBX 9 10 0 1
BITMAP
7600
0000
0000
7E00
0380
0380
7F80
C380
4380
7F80
ENDCHAR
STARTCHAR 00E5
ENCODING 229
SWIDTH 1028 0
DWIDTH 10 0
BBX 9 10 0 1
BITMAP
0800
3400
3400
7E00
0380
0380
7F80
C380
4380
7F80
ENDCHAR
STARTCHAR 00E6
ENCODING 230
SWIDTH 1028 0
DWIDTH 10 0
BBX 9 7 0 1
BITMAP
7E00
0B80
0B80
7F80
C800
4800
7E00
ENDCHAR
STARTCHAR 00E7
ENCODING 231
SWIDTH 1028 0
DWIDTH 10 0
BBX 9 8 0 0
BITMAP
7F80
C000
C000
C000
7F80
0400
0400
3800
ENDCHAR
STARTCHAR 00E8
ENCODING 232
SWIDTH 1028 0
DWIDTH 10 0
BBX 9 10 0 1
BITMAP
3000
0800
0800
7E00
4200
C380
FF80
C000
C000
7E00
ENDCHAR
STARTCHAR 00E9
ENCODING 233
SWIDTH 1028 0
DWIDTH 10 0
BBX 9 10 0 1
BITMAP
0400
0800
0800
7E00
4200
C380
FF80
C000
C000
7E00
ENDCHAR
STARTCHAR 00EA
ENCODING 234
SWIDTH 1028 0
DWIDTH 10 0
BBX 9 10 0 1
BITMAP
3C00
7600
7600
7E00
4200
C380
FF80
C000
C000
7E00
ENDCHAR
STARTCHAR 00EB
ENCODING 235
SWIDTH 1028 0
DWIDTH 10 0
BBX 9 10 0 1
BITMAP
7600
0000
0000
7E00
4200
C380
FF80
C000
C000
7E00
ENDCHAR
STARTCHAR 00EC
ENCODING 236
SWIDTH 1028 0
DWIDTH 10 0
BBX 8 10 1 1
BITMAP
60
00
10
00
00
78
18
18
18
FF
ENDCHAR
STARTCHAR 00ED
ENCODING 237
SWIDTH 1028 0
DWIDTH 10 0
BBX 8 10 1 1
BITMAP
08
00
10
00
00
78
18
18
18
FF
ENDCHAR
STARTCHAR 00EE
ENCODING 238
SWIDTH 1028 0
DWIDTH 10 0
BBX 8 10 1 1
BITMAP
78
68
EC
00
00
78
18
18
18
FF
ENDCHAR
STARTCHAR 00EF
ENCODING 239
SWIDTH 1028 0
DWIDTH 10 0
BBX 8 10 1 1
BITMAP
EC
00
00
78
18
18
18
18
18
FF
ENDCHAR
STARTCHAR 00F0
ENCODING 240
SWIDTH 1028 0
DWIDTH 10 0
BBX 9 10 0 1
BITMAP
7200
7C00
7C00
8C00
0C00
7E00
C380
C380
C380
7E00
ENDCHAR
STARTCHAR 00F1
ENCODING 241
SWIDTH 1028 0
DWIDTH 10 0
BBX 9 10 0 1
BITMAP
3A00
4C00
4C00
FE00
C200
C380
C380
C380
C380
C380
ENDCHAR
STARTCHAR 00F2
ENCODING 242
SWIDTH 1028 0
DWIDTH 10 0
BBX 9 10 0 1
BITMAP
3000
0800
0800
7E00
4200
C380
C380
C380
C380
7E00
ENDCHAR
STARTCHAR 00F3
ENCODING 243
SWIDTH 1028 0
DWIDTH 10 0
BBX 9 10 0 1
BITMAP
0400
0800
0800
7E00
4200
C380
C380
C380
C380
7E00
ENDCHAR
STARTCHAR 00F4
ENCODING 244
SWIDTH 1028 0
DWIDTH 10 0
BBX 9 10 0 1
BITMAP
3C00
7600
7600
7E00
4200
C380
C380
C380
C380
7E00
ENDCHAR
STARTCHAR 00F5
ENCODING 245
SWIDTH 1028 0
DWIDTH 10 0
BBX 9 10 0 1
BITMAP
3A00
4C00
4C00
7E00
4200
C380
C380
C380
C380
7E00
ENDCHAR
STARTCHAR 00F6
ENCODING 246
SWIDTH 1028 0
DWIDTH 10 0
BBX 9 10 0 1
BITMAP
7600
0000
0000
7E00
4200
C380
C380
C380
C380
7E00
ENDCHAR
STARTCHAR 00F7
ENCODING 247
SWIDTH 1028 0
DWIDTH 10 0
BBX 8 6 1 3
BITMAP
18
00
FF
00
00
18
ENDCHAR
STARTCHAR 00F8
ENCODING 248
SWIDTH 1028 0
DWIDTH 10 0
BBX 9 7 0 1
BITMAP
7E00
4600
C780
CB80
F380
F380
7E00
ENDCHAR
STARTCHAR 00F9
ENCODING 249
SWIDTH 1028 0
DWIDTH 10 0
BBX 9 10 0 1
BITMAP
3000
0000
0800
C380
C380
C380
C380
C380
4380
7F80
ENDCHAR
STARTCHAR 00FA
ENCODING 250
SWIDTH 1028 0
DWIDTH 10 0
BBX 9 10 0 1
BITMAP
0400
0000
0800
C380
C380
C380
C380
C380
4380
7F80
ENDCHAR
STARTCHAR 00FB
ENCODING 251
SWIDTH 1028 0
DWIDTH 10 0
BBX 9 10 0 1
BITMAP
3C00
3400
7600
0000
0000
C380
C380
C380
C380
7F80
ENDCHAR
STARTCHAR 00FC
ENCODING 252
SWIDTH 1028 0
DWIDTH 10 0
BBX 9 10 0 1
BITMAP
7600
0000
0000
C380
C380
C380
C380
C380
4380
7F80
ENDCHAR
STARTCHAR 00FD
ENCODING 253
SWIDTH 1028 0
DWIDTH 10 0
BBX 9 11 0 0
BITMAP
0400
0000
0800
C380
C380
C380
C380
7F80
0380
0380
7E00
ENDCHAR
STARTCHAR 00FE
ENCODING 254
SWIDTH 1028 0
DWIDTH 10 0
BBX 9 11 0 0
BITMAP
C000
C000
C000
FE00
C380
C380
C380
FE00
C000
C000
C000
ENDCHAR
STARTCHAR 00FF
ENCODING 255
SWIDTH 1028 0
DWIDTH 10 0
BBX 9 11 0 0
BITMAP
7600
0000
0000
C380
C380
C380
C380
7F80
0380
0380
7E00
ENDCHAR
STARTCHAR 0100
ENCODING 256
SWIDTH 1028 0
DWIDTH 10 0
BBX 9 10 0 1
BITMAP
7E00
0000
0000
3C00
7600
7600
C380
FF80
C380
C380
ENDCHAR
STARTCHAR 0101
ENCODING 257
SWIDTH 1028 0
DWIDTH 10 0
BBX 9 10 0 1
BITMAP
7E00
0000
0000
7E00
0380
0380
7F80
C380
4380
7F80
ENDCHAR
STARTCHAR 0102
ENCODING 258
SWIDTH 1028 0
DWIDTH 10 0
BBX 9 10 0 1
BITMAP
4200
0000
3C00
3C00
7600
7600
C380
FF80
C380
C380
ENDCHAR
STARTCHAR 0103
ENCODING 259
SWIDTH 1028 0
DWIDTH 10 0
BBX 9 10 0 1
BITMAP
4200
3C00
3C00
7E00
0380
0380
7F80
C380
4380
7F80
ENDCHAR
STARTCHAR 0104
ENCODING 260
SWIDTH 1028 0
DWIDTH 10 0
BBX 9 11 0 0
BITMAP
3C00
3400
7600
C380
FF80
C380
C380
0200
0200
0400
0380
ENDCHAR
STARTCHAR 0105
ENCODING 261
SWIDTH 1028 0
DWIDTH 10 0
BBX 9 11 0 0
BITMAP
7E00
0380
0380
7F80
C380
4380
7F80
0800
0800
3000
0C00
ENDCHAR
STARTCHAR 0106
ENCODING 262
SWIDTH 1028 0
DWIDTH 10 0
BBX 9 10 0 1
BITMAP
0400
0800
0800
3E00
3200
7380
C000
7380
3200
3E00
ENDCHAR
STARTCHAR 0107
ENCODING 263
SWIDTH 1028 0
DWIDTH 10 0
BBX 9 10 0 1
BITMAP
0400
0800
0800
7F80
4000
C000
C000
C000
C000
7F80
ENDCHAR
STARTCHAR 0108
ENCODING 264
SWIDTH 1028 0
DWIDTH 10 0
BBX 9 10 0 1
BITMAP
3C00
3400
7600
3E00
3200
7380
C000
7380
3200
3E00
ENDCHAR
STARTCHAR 0109
ENCODING 265
SWIDTH 1028 0
DWIDTH 10 0
BBX 9 10 0 1
BITMAP
3C00
7600
7600
7F80
4000
C000
C000
C000
C000
7F80
ENDCHAR
STARTCHAR 010A
ENCODING 266
SWIDTH 1028 0
DWIDTH 10 0
BBX 9 10 0 1
BITMAP
0C00
0000
0000
3E00
3200
7380
C000
7380
3200
3E00
ENDCHAR
STARTCHAR 010B
ENCODING 267
SWIDTH 1028 0
DWIDTH 10 0
BBX 9 10 0 1
BITMAP
0C00
0000
0000
7F80
4000
C000
C000
C000
C000
7F80
ENDCHAR
STARTCHAR 010C
ENCODING 268
SWIDTH 1028 0
DWIDTH 10 0
BBX 9 10 0 1
BITMAP
7380
3200
3E00
3E00
3E00
7380
C000
7380
3200
3E00
ENDCHAR
STARTCHAR 010D
ENCODING 269
SWIDTH 1028 0
DWIDTH 10 0
BBX 9 10 0 1
BITMAP
7600
3C00
3C00
7F80
4000
C000
C000
C000
C000
7F80
ENDCHAR
STARTCHAR 010E
ENCODING 270
SWIDTH 1028 0
DWIDTH 10 0
BBX 9 10 0 1
BITMAP
7600
3400
3C00
FC00
FC00
C600
C380
C600
C600
FC00
ENDCHAR
STARTCHAR 010F
ENCODING 271
SWIDTH 1028 0
DWIDTH 10 0
BBX 10 10 0 1
BITMAP
0DC0
0DC0
0DC0
7D80
4C00
CC00
CC00
CC00
CC00
7C00
ENDCHAR
STARTCHAR 0110
ENCODING 272
SWIDTH 1028 0
DWIDTH 10 0
BBX 9 10 0 1
BITMAP
7C00
7400
7600
7380
7380
FB80
7380
7600
7600
7C00
ENDCHAR
STARTCHAR 0111
ENCODING 273
SWIDTH 1028 0
DWIDTH 10 0
BBX 9 10 0 1
BITMAP
0600
0600
0F80
7E00
4600
C600
C600
C600
C600
7E00
ENDCHAR
STARTCHAR 0112
ENCODING 274
SWIDTH 1028 0
DWIDTH 10 0
BBX 9 10 0 1
BITMAP
7E00
0000
0000
FF80
C000
C000
FE00
C000
C000
FF80
ENDCHAR
STARTCHAR 0113
ENCODING 275
SWIDTH 1028 0
DWIDTH 10 0
BBX 9 10 0 1
BITMAP
7E00
0000
0000
7E00
4200
C380
FF80
C000
C000
7E00
ENDCHAR
STARTCHAR 0114
ENCODING 276
SWIDTH 1028 0
DWIDTH 10 0
BBX 9 10 0 1
BITMAP
4200
3C00
3C00
FF80
C000
C000
FE00
C000
C000
FF80
ENDCHAR
STARTCHAR 0115
ENCODING 277
SWIDTH 1028 0
DWIDTH 10 0
BBX 9 10 0 1
BITMAP
4200
0000
3C00
7E00
7E00
C380
FF80
C000
C000
7E00
ENDCHAR
STARTCHAR 0116
ENCODING 278
SWIDTH 1028 0
DWIDTH 10 0
BBX 9 10 0 1
BITMAP
0C00
0000
0000
FF80
C000
C000
FE00
C000
C000
FF80
ENDCHAR
STARTCHAR 0117
ENCODING 279
SWIDTH 1028 0
DWIDTH 10 0
BBX 9 10 0 1
BITMAP
0C00
0000
0000
7E00
4200
C380
FF80
C000
C000
7E00
ENDCHAR
STARTCHAR 0118
ENCODING 280
SWIDTH 1028 0
DWIDTH 10 0
BBX 9 11 0 0
BITMAP
FF80
C000
C000
FE00
C000
C000
FF80
0800
0800
3000
0C00
ENDCHAR
STARTCHAR 0119
ENCODING 281
SWIDTH 1028 0
DWIDTH 10 0
BBX 9 11 0 0
BITMAP
7E00
4200
C380
FF80
C000
C000
7E00
0800
0800
3000
0C00
ENDCHAR
STARTCHAR 011A
ENCODING 282
SWIDTH 1028 0
DWIDTH 10 0
BBX 9 10 0 1
BITMAP
7600
3C00
3C00
FF80
C000
C000
FE00
C000
C000
FF80
ENDCHAR
STARTCHAR 011B
ENCODING 283
SWIDTH 1028 0
DWIDTH 10 0
BBX 9 10 0 1
BITMAP
7600
3400
3C00
7E00
7E00
C380
FF80
C000
C000
7E00
ENDCHAR
STARTCHAR 011C
ENCODING 284
SWIDTH 1028 0
DWIDTH 10 0
BBX 9 10 0 1
BITMAP
3C00
7600
7600
7F80
4000
C000
C780
C380
C380
7F80
ENDCHAR
STARTCHAR 011D
ENCODING 285
SWIDTH 1028 0
DWIDTH 10 0
BBX 9 11 0 0
BITMAP
3C00
7600
7600
7F80
C380
C380
C380
7F80
0380
0380
7E00
ENDCHAR
STARTCHAR 011E
ENCODING 286
SWIDTH 1028 0
DWIDTH 10 0
BBX 9 10 0 1
BITMAP
4200
3C00
3C00
7F80
4000
C000
C780
C380
C380
7F80
ENDCHAR
STARTCHAR 011F
ENCODING 287
SWIDTH 1028 0
DWIDTH 10 0
BBX 9 11 0 0
BITMAP
4200
0000
3C00
7F80
C380
C380
C380
7F80
0380
0380
7E00
ENDCHAR
STARTCHAR 0120
ENCODING 288
SWIDTH 1028 0
DWIDTH 10 0
BBX 9 10 0 1
BITMAP
0C00
0000
0000
7F80
4000
C000
C780
C380
C380
7F80
ENDCHAR
STARTCHAR 0121
ENCODING 289
SWIDTH 1028 0
DWIDTH 10 0
BBX 9 11 0 0
BITMAP
0C00
0000
0000
7F80
C380
C380
C380
7F80
0380
0380
7E00
ENDCHAR
STARTCHAR 0122
ENCODING 290
SWIDTH 1028 0
DWIDTH 10 0
BBX 9 11 0 0
BITMAP
3F80
3000
7000
C000
C000
C780
7380
3F80
3F80
0C00
3800
ENDCHAR
STARTCHAR 0123
ENCODING 291
SWIDTH 1028 0
DWIDTH 10 0
BBX 9 11 0 0
BITMAP
0C00
3800
3800
7F80
C380
C380
C380
7F80
0380
0380
7E00
ENDCHAR
STARTCHAR 0124
ENCODING 292
SWIDTH 1028 0
DWIDTH 10 0
BBX 9 10 0 1
BITMAP
3C00
3400
F780
C380
C380
C380
FF80
C380
C380
C380
ENDCHAR
STARTCHAR 0125
ENCODING 293
SWIDTH 1028 0
DWIDTH 10 0
BBX 9 10 0 1
BITMAP
3C00
3400
F600
C000
C000
FE00
C380
C380
C380
C380
ENDCHAR
STARTCHAR 0126
ENCODING 294
SWIDTH 1028 0
DWIDTH 10 0
BBX 9 10 0 1
BITMAP
C380
C380
FF80
C380
C380
FF80
C380
C380
C380
C380
ENDCHAR
STARTCHAR 0127
ENCODING 295
SWIDTH 1028 0
DWIDTH 10 0
BBX 9 10 0 1
BITMAP
7000
7000
FC00
7000
7000
7E00
7380
7380
7380
7380
ENDCHAR
STARTCHAR 0128
ENCODING 296
SWIDTH 1028 0
DWIDTH 10 0
BBX 8 10 1 1
BITMAP
73
8C
8C
FF
18
18
18
18
18
FF
ENDCHAR
STARTCHAR 0129
ENCODING 297
SWIDTH 1028 0
DWIDTH 10 0
BBX 8 10 1 1
BITMAP
73
00
8C
00
00
78
18
18
18
FF
ENDCHAR
STARTCHAR 012A
ENCODING 298
SWIDTH 1028 0
DWIDTH 10 0
BBX 8 10 1 1
BITMAP
FF
00
00
FF
18
18
18
18
18
FF
ENDCHAR
STARTCHAR 012B
ENCODING 299
SWIDTH 1028 0
DWIDTH 10 0
BBX 8 10 1 1
BITMAP
FC
00
00
78
18
18
18
18
18
FF
ENDCHAR
STARTCHAR 012C
ENCODING 300
SWIDTH 1028 0
DWIDTH 10 0
BBX 8 10 1 1
BITMAP
64
18
18
FF
18
18
18
18
18
FF
ENDCHAR
STARTCHAR 012D
ENCODING 301
SWIDTH 1028 0
DWIDTH 10 0
BBX 8 10 1 1
BITMAP
84
00
78
00
00
78
18
18
18
FF
ENDCHAR
STARTCHAR 012E
ENCODING 302
SWIDTH 1028 0
DWIDTH 10 0
BBX 8 11 1 0
BITMAP
FF
18
18
18
18
18
FF
10
10
60
18
ENDCHAR
STARTCHAR 012F
ENCODING 303
SWIDTH 1028 0
DWIDTH 10 0
BBX 8 11 1 0
BITMAP
18
00
00
78
18
18
FF
10
10
60
18
ENDCHAR
STARTCHAR 0130
ENCODING 304
SWIDTH 1028 0
DWIDTH 10 0
BBX 8 10 1 1
BITMAP
18
00
00
FF
18
18
18
18
18
FF
ENDCHAR
STARTCHAR 0131
ENCODING 305
SWIDTH 1028 0
DWIDTH 10 0
BBX 8 7 1 1
BITMAP
78
18
18
18
18
18
FF
ENDCHAR
STARTCHAR 0132
ENCODING 306
SWIDTH 1028 0
DWIDTH 10 0
BBX 9 10 0 1
BITMAP
FB80
7380
7380
7380
7380
7380
FB80
0380
0200
7E00
ENDCHAR
STARTCHAR 0133
ENCODING 307
SWIDTH 1028 0
DWIDTH 10 0
BBX 9 11 0 0
BITMAP
7380
0000
0000
F780
7380
7380
7380
7380
7380
0380
3E00
ENDCHAR
STARTCHAR 0134
ENCODING 308
SWIDTH 1028 0
DWIDTH 10 0
BBX 9 10 0 1
BITMAP
0E00
0A00
3B80
0380
0380
0380
0380
C380
4200
7E00
ENDCHAR
STARTCHAR 0135
ENCODING 309
SWIDTH 1028 0
DWIDTH 10 0
BBX 8 11 1 0
BITMAP
1C
14
77
00
1C
0C
0C
0C
0C
0C
F8
ENDCHAR
STARTCHAR 0136
ENCODING 310
SWIDTH 1028 0
DWIDTH 10 0
BBX 9 11 0 0
BITMAP
C600
C400
CC00
F800
FC00
FC00
CE00
C780
2800
3800
7000
ENDCHAR
STARTCHAR 0137
ENCODING 311
SWIDTH 1028 0
DWIDTH 10 0
BBX 9 11 0 0
BITMAP
C000
C000
C380
C600
FC00
C600
C600
C380
0000
3800
7000
ENDCHAR
STARTCHAR 0138
ENCODING 312
SWIDTH 1028 0
DWIDTH 10 0
BBX 9 7 0 1
BITMAP
C380
C200
C600
FC00
C600
C600
C380
ENDCHAR
STARTCHAR 0139
ENCODING 313
SWIDTH 1028 0
DWIDTH 10 0
BBX 8 10 1 1
BITMAP
08
00
F0
E0
E0
E0
E0
E0
E0
FF
ENDCHAR
STARTCHAR 013A
ENCODING 314
SWIDTH 1028 0
DWIDTH 10 0
BBX 7 10 0 1
BITMAP
08
30
30
78
38
38
38
38
38
FE
ENDCHAR
STARTCHAR 013B
ENCODING 315
SWIDTH 1028 0
DWIDTH 10 0
BBX 8 11 1 0
BITMAP
E0
E0
E0
E0
E0
E0
E0
FF
18
18
70
ENDCHAR
STARTCHAR 013C
ENCODING 316
SWIDTH 1028 0
DWIDTH 10 0
BBX 8 11 1 0
BITMAP
78
18
18
18
18
18
18
FF
18
18
70
ENDCHAR
STARTCHAR 013D
ENCODING 317
SWIDTH 1028 0
DWIDTH 10 0
BBX 8 10 1 1
BITMAP
E7
E7
E7
E4
E0
E0
E0
E0
E0
FF
ENDCHAR
STARTCHAR 013E
ENCODING 318
SWIDTH 1028 0
DWIDTH 10 0
BBX 9 10 0 1
BITMAP
7B80
3B80
3B80
3A00
3800
3800
3800
3800
3800
FE00
ENDCHAR
STARTCHAR 013F
ENCODING 319
SWIDTH 1028 0
DWIDTH 10 0
BBX 8 10 1 1
BITMAP
E0
E0
E0
EC
EC
EC
E0
E0
E0
FF
ENDCHAR
STARTCHAR 0140
ENCODING 320
SWIDTH 1028 0
DWIDTH 10 0
BBX 9 10 0 1
BITMAP
7800
3800
3800
3B80
3B80
3B80
3800
3800
3800
FE00
ENDCHAR
STARTCHAR 0141
ENCODING 321
SWIDTH 1028 0
DWIDTH 10 0
BBX 9 10 0 1
BITMAP
7000
7000
7000
7800
7000
F000
7000
7000
7000
7F80
ENDCHAR
STARTCHAR 0142
ENCODING 322
SWIDTH 1028 0
DWIDTH 10 0
BBX 8 10 1 1
BITMAP
78
18
18
1C
18
78
18
18
18
FF
ENDCHAR
STARTCHAR 0143
ENCODING 323
SWIDTH 1028 0
DWIDTH 10 0
BBX 9 10 0 1
BITMAP
0400
0000
0800
F380
F380
FB80
FF80
CF80
CF80
C780
ENDCHAR
STARTCHAR 0144
ENCODING 324
SWIDTH 1028 0
DWIDTH 10 0
BBX 9 10 0 1
BITMAP
0400
0800
0800
FE00
C200
C380
C380
C380
C380
C380
ENDCHAR
STARTCHAR 0145
ENCODING 325
SWIDTH 1028 0
DWIDTH 10 0
BBX 9 11 0 0
BITMAP
F380
F380
FB80
FF80
CF80
CF80
C780
C380
0000
0C00
3800
ENDCHAR
STARTCHAR 0146
ENCODING 326
SWIDTH 1028 0
DWIDTH 10 0
BBX 9 9 0 0
BITMAP
FE00
C380
C380
C380
C380
C380
0000
0C00
3800
ENDCHAR
STARTCHAR 0147
ENCODING 327
SWIDTH 1028 0
DWIDTH 10 0
BBX 9 10 0 1
BITMAP
7600
3400
3C00
F380
F380
FB80
FF80
FF80
CF80
C780
ENDCHAR
STARTCHAR 0148
ENCODING 328
SWIDTH 1028 0
DWIDTH 10 0
BBX 9 10 0 1
BITMAP
7600
3400
3C00
FE00
FE00
C380
C380
C380
C380
C380
ENDCHAR
STARTCHAR 014A
ENCODING 330
SWIDTH 1028 0
DWIDTH 10 0
BBX 9 11 0 0
BITMAP
F380
F380
FB80
FF80
CF80
CF80
C780
C380
C380
0380
3E00
ENDCHAR
STARTCHAR 014B
ENCODING 331
SWIDTH 1028 0
DWIDTH 10 0
BBX 9 9 0 0
BITMAP
FE00
C380
C380
C380
C380
C380
C380
0380
3E00
ENDCHAR
STARTCHAR 014C
ENCODING 332
SWIDTH 1028 0
DWIDTH 10 0
BBX 9 10 0 1
BITMAP
7E00
0000
0000
7E00
4200
C380
C380
C380
C380
7E00
ENDCHAR
STARTCHAR 014D
ENCODING 333
SWIDTH 1028 0
DWIDTH 10 0
BBX 9 10 0 1
BITMAP
7E00
0000
0000
7E00
4200
C380
C380
C380
C380
7E00
ENDCHAR
STARTCHAR 014E
ENCODING 334
SWIDTH 1028 0
DWIDTH 10 0
BBX 9 10 0 1
BITMAP
4200
0000
3C00
7E00
7E00
C380
C380
C380
C380
7E00
ENDCHAR
STARTCHAR 014F
ENCODING 335
SWIDTH 1028 0
DWIDTH 10 0
BBX 9 10 0 1
BITMAP
4200
0000
3C00
7E00
7E00
C380
C380
C380
C380
7E00
ENDCHAR
STARTCHAR 0150
ENCODING 336
SWIDTH 1028 0
DWIDTH 10 0
BBX 9 10 0 1
BITMAP
3200
4400
4400
7E00
4200
C380
C380
C380
C380
7E00
ENDCHAR
STARTCHAR 0151
ENCODING 337
SWIDTH 1028 0
DWIDTH 10 0
BBX 9 10 0 1
BITMAP
3200
4400
4400
7E00
4200
C380
C380
C380
C380
7E00
ENDCHAR
STARTCHAR 0152
ENCODING 338
SWIDTH 1028 0
DWIDTH 10 0
BBX 9 10 0 1
BITMAP
7F80
4C00
CC00
CC00
CC00
CF80
CC00
CC00
CC00
7F80
ENDCHAR
STARTCHAR 0153
ENCODING 339
SWIDTH 1028 0
DWIDTH 10 0
BBX 9 7 0 1
BITMAP
7E00
4A00
CB80
CF80
C800
C800
7E00
ENDCHAR
STARTCHAR 0154
ENCODING 340
SWIDTH 1028 0
DWIDTH 10 0
BBX 9 10 0 1
BITMAP
0400
0800
0800
FE00
C600
C780
FC00
CE00
CE00
C780
ENDCHAR
STARTCHAR 0155
ENCODING 341
SWIDTH 1028 0
DWIDTH 10 0
BBX 8 10 1 1
BITMAP
08
00
10
EF
E0
F0
E0
E0
E0
E0
ENDCHAR
STARTCHAR 0156
ENCODING 342
SWIDTH 1028 0
DWIDTH 10 0
BBX 9 11 0 0
BITMAP
FE00
C200
C380
C780
FC00
CE00
CE00
C780
0C00
0C00
3800
ENDCHAR
STARTCHAR 0157
ENCODING 343
SWIDTH 1028 0
DWIDTH 10 0
BBX 8 9 1 0
BITMAP
EF
F0
E0
E0
E0
E0
E0
70
E0
ENDCHAR
STARTCHAR 0158
ENCODING 344
SWIDTH 1028 0
DWIDTH 10 0
BBX 9 10 0 1
BITMAP
3400
0800
0800
FE00
C600
C780
FC00
CE00
CE00
C780
ENDCHAR
STARTCHAR 0159
ENCODING 345
SWIDTH 1028 0
DWIDTH 10 0
BBX 8 10 1 1
BITMAP
77
1C
1C
EF
F0
F0
E0
E0
E0
E0
ENDCHAR
STARTCHAR 015A
ENCODING 346
SWIDTH 1028 0
DWIDTH 10 0
BBX 9 10 0 1
BITMAP
0400
0800
0800
7E00
4000
C000
7E00
0380
0200
FE00
ENDCHAR
STARTCHAR 015B
ENCODING 347
SWIDTH 1028 0
DWIDTH 10 0
BBX 9 10 0 1
BITMAP
0400
0800
0800
7E00
4000
C000
7E00
0380
0200
FE00
ENDCHAR
STARTCHAR 015C
ENCODING 348
SWIDTH 1028 0
DWIDTH 10 0
BBX 9 10 0 1
BITMAP
3C00
7600
7600
7E00
4000
C000
7E00
0380
0200
FE00
ENDCHAR
STARTCHAR 015D
ENCODING 349
SWIDTH 1028 0
DWIDTH 10 0
BBX 9 10 0 1
BITMAP
3C00
7600
7600
7E00
4000
C000
7E00
0380
0200
FE00
ENDCHAR
STARTCHAR 015E
ENCODING 350
SWIDTH 1028 0
DWIDTH 10 0
BBX 9 11 0 0
BITMAP
7E00
4000
C000
7E00
0380
0380
C380
7E00
0400
0400
3800
ENDCHAR
STARTCHAR 015F
ENCODING 351
SWIDTH 1028 0
DWIDTH 10 0
BBX 9 9 0 0
BITMAP
7E00
C000
7E00
0200
0380
FE00
0400
0400
3800
ENDCHAR
STARTCHAR 0160
ENCODING 352
SWIDTH 1028 0
DWIDTH 10 0
BBX 9 10 0 1
BITMAP
7600
3C00
3C00
7E00
4000
C000
7E00
0380
0200
FE00
ENDCHAR
STARTCHAR 0161
ENCODING 353
SWIDTH 1028 0
DWIDTH 10 0
BBX 9 10 0 1
BITMAP
7600
3C00
3C00
7E00
4000
C000
7E00
0380
0200
FE00
ENDCHAR
STARTCHAR 0164
ENCODING 356
SWIDTH 1028 0
DWIDTH 10 0
BBX 8 10 1 1
BITMAP
64
00
18
FF
18
18
18
18
18
18
ENDCHAR
STARTCHAR 0165
ENCODING 357
SWIDTH 1028 0
DWIDTH 10 0
BBX 8 10 1 1
BITMAP
64
00
18
18
18
FF
18
18
18
18
ENDCHAR
STARTCHAR 0166
ENCODING 358
SWIDTH 1028 0
DWIDTH 10 0
BBX 8 10 1 1
BITMAP
FF
18
18
18
18
1C
78
18
18
18
ENDCHAR
STARTCHAR 0167
ENCODING 359
SWIDTH 1028 0
DWIDTH 10 0
BBX 8 10 1 1
BITMAP
18
18
18
FF
18
18
1C
78
18
18
ENDCHAR
STARTCHAR 0168
ENCODING 360
SWIDTH 1028 0
DWIDTH 10 0
BBX 9 10 0 1
BITMAP
3A00
0800
4C00
C380
C380
C380
C380
C380
4200
7E00
ENDCHAR
STARTCHAR 0169
ENCODING 361
SWIDTH 1028 0
DWIDTH 10 0
BBX 9 10 0 1
BITMAP
3A00
0800
4C00
C380
C380
C380
C380
C380
4380
7F80
ENDCHAR
STARTCHAR 016A
ENCODING 362
SWIDTH 1028 0
DWIDTH 10 0
BBX 9 10 0 1
BITMAP
7E00
0000
0000
C380
C380
C380
C380
C380
4200
7E00
ENDCHAR
STARTCHAR 016B
ENCODING 363
SWIDTH 1028 0
DWIDTH 10 0
BBX 9 10 0 1
BITMAP
7E00
0000
0000
C380
C380
C380
C380
C380
4380
7F80
ENDCHAR
STARTCHAR 016C
ENCODING 364
SWIDTH 1028 0
DWIDTH 10 0
BBX 9 10 0 1
BITMAP
4200
0000
3C00
C380
C380
C380
C380
C380
4200
7E00
ENDCHAR
STARTCHAR 016D
ENCODING 365
SWIDTH 1028 0
DWIDTH 10 0
BBX 9 10 0 1
BITMAP
4200
0000
3C00
C380
C380
C380
C380
C380
4380
7F80
ENDCHAR
STARTCHAR 016E
ENCODING 366
SWIDTH 1028 0
DWIDTH 10 0
BBX 9 10 0 1
BITMAP
3C00
3400
7600
BD80
C380
C380
C380
C380
4200
7E00
ENDCHAR
STARTCHAR 016F
ENCODING 367
SWIDTH 1028 0
DWIDTH 10 0
BBX 9 10 0 1
BITMAP
3C00
3400
7600
BD80
C380
C380
C380
C380
4380
7F80
ENDCHAR
STARTCHAR 0170
ENCODING 368
SWIDTH 1028 0
DWIDTH 10 0
BBX 9 10 0 1
BITMAP
3200
0000
4400
C380
C380
C380
C380
C380
4200
7E00
ENDCHAR
STARTCHAR 0171
ENCODING 369
SWIDTH 1028 0
DWIDTH 10 0
BBX 9 10 0 1
BITMAP
3200
0000
4400
C380
C380
C380
C380
C380
4380
7F80
ENDCHAR
STARTCHAR 0172
ENCODING 370
SWIDTH 1028 0
DWIDTH 10 0
BBX 9 11 0 0
BITMAP
C380
C380
C380
C380
C380
4200
7E00
0800
0800
3000
0C00
ENDCHAR
STARTCHAR 0173
ENCODING 371
SWIDTH 1028 0
DWIDTH 10 0
BBX 9 11 0 0
BITMAP
C380
C380
C380
C380
C380
4380
7F80
0800
0800
3000
0C00
ENDCHAR
STARTCHAR 0174
ENCODING 372
SWIDTH 1028 0
DWIDTH 10 0
BBX 9 10 0 1
BITMAP
3C00
7600
7600
C380
C380
CB80
FF80
FF80
FF80
F780
ENDCHAR
STARTCHAR 0175
ENCODING 373
SWIDTH 1028 0
DWIDTH 10 0
BBX 9 10 0 1
BITMAP
3C00
3400
7600
0000
0000
CB80
CB80
CB80
CB80
7600
ENDCHAR
STARTCHAR 0176
ENCODING 374
SWIDTH 1028 0
DWIDTH 10 0
BBX 8 10 1 1
BITMAP
18
24
64
E7
E7
E7
7C
18
18
18
ENDCHAR
STARTCHAR 0177
ENCODING 375
SWIDTH 1028 0
DWIDTH 10 0
BBX 9 11 0 0
BITMAP
3C00
3400
7600
0000
0000
C380
C380
7F80
0380
0380
7E00
ENDCHAR
STARTCHAR 0178
ENCODING 376
SWIDTH 1028 0
DWIDTH 10 0
BBX 8 10 1 1
BITMAP
E7
00
00
E7
E7
E7
7C
18
18
18
ENDCHAR
STARTCHAR 0179
ENCODING 377
SWIDTH 1028 0
DWIDTH 10 0
BBX 9 10 0 1
BITMAP
0400
0800
0800
FF80
0E00
0E00
3C00
7800
7800
FF80
ENDCHAR
STARTCHAR 017A
ENCODING 378
SWIDTH 1028 0
DWIDTH 10 0
BBX 9 10 0 1
BITMAP
0400
0800
0800
FF80
0E00
0E00
3C00
7800
7800
FF80
ENDCHAR
STARTCHAR 017B
ENCODING 379
SWIDTH 1028 0
DWIDTH 10 0
BBX 9 10 0 1
BITMAP
0C00
0000
0000
FF80
0E00
0E00
3C00
7800
7800
FF80
ENDCHAR
STARTCHAR 017C
ENCODING 380
SWIDTH 1028 0
DWIDTH 10 0
BBX 9 10 0 1
BITMAP
0C00
0000
0000
FF80
0E00
0E00
3C00
7800
7800
FF80
ENDCHAR
STARTCHAR 017D
ENCODING 381
SWIDTH 1028 0
DWIDTH 10 0
BBX 9 10 0 1
BITMAP
7600
3C00
3C00
FF80
0E00
0E00
3C00
7800
7800
FF80
ENDCHAR
STARTCHAR 017E
ENCODING 382
SWIDTH 1028 0
DWIDTH 10 0
BBX 9 10 0 1
BITMAP
7600
3C00
3C00
FF80
0E00
0E00
3C00
7800
7800
FF80
ENDCHAR
STARTCHAR 017F
ENCODING 383
SWIDTH 1028 0
DWIDTH 10 0
BBX 5 10 4 1
BITMAP
78
40
C0
C0
C0
C0
C0
C0
C0
C0
ENDCHAR
STARTCHAR 0192
ENCODING 402
SWIDTH 1028 0
DWIDTH 10 0
BBX 8 10 1 1
BITMAP
0F
18
18
FF
18
18
18
18
18
F0
ENDCHAR
STARTCHAR 021A
ENCODING 538
SWIDTH 1028 0
DWIDTH 10 0
BBX 8 11 1 0
BITMAP
FF
18
18
18
18
18
18
18
18
08
70
ENDCHAR
STARTCHAR 021B
ENCODING 539
SWIDTH 1028 0
DWIDTH 10 0
BBX 8 11 1 0
BITMAP
18
18
18
FF
18
18
18
18
08
08
70
ENDCHAR
STARTCHAR 02BC
ENCODING 700
SWIDTH 1028 0
DWIDTH 10 0
BBX 2 4 0 7
BITMAP
C0
C0
C0
80
ENDCHAR
STARTCHAR 02C6
ENCODING 710
SWIDTH 1028 0
DWIDTH 10 0
BBX 6 2 1 8
BITMAP
78
EC
ENDCHAR
STARTCHAR 02C7
ENCODING 711
SWIDTH 1028 0
DWIDTH 10 0
BBX 6 2 1 8
BITMAP
EC
78
ENDCHAR
STARTCHAR 02C9
ENCODING 713
SWIDTH 1028 0
DWIDTH 10 0
BBX 6 1 1 10
BITMAP
FC
ENDCHAR
STARTCHAR 02CA
ENCODING 714
SWIDTH 1028 0
DWIDTH 10 0
BBX 2 2 4 8
BITMAP
40
80
ENDCHAR
STARTCHAR 02CB
ENCODING 715
SWIDTH 1028 0
DWIDTH 10 0
BBX 2 2 4 8
BITMAP
80
40
ENDCHAR
STARTCHAR 02D7
ENCODING 727
SWIDTH 1028 0
DWIDTH 10 0
BBX 6 1 1 6
BITMAP
FC
ENDCHAR
STARTCHAR 02D8
ENCODING 728
SWIDTH 1028 0
DWIDTH 10 0
BBX 6 2 1 8
BITMAP
84
78
ENDCHAR
STARTCHAR 02D9
ENCODING 729
SWIDTH 1028 0
DWIDTH 10 0
BBX 2 1 4 10
BITMAP
C0
ENDCHAR
STARTCHAR 02DA
ENCODING 730
SWIDTH 1028 0
DWIDTH 10 0
BBX 6 4 1 7
BITMAP
78
68
EC
78
ENDCHAR
STARTCHAR 02DB
ENCODING 731
SWIDTH 1028 0
DWIDTH 10 0
BBX 4 4 2 0
BITMAP
20
00
C0
30
ENDCHAR
STARTCHAR 02DC
ENCODING 732
SWIDTH 1028 0
DWIDTH 10 0
BBX 6 2 1 8
BITMAP
74
98
ENDCHAR
STARTCHAR 02DD
ENCODING 733
SWIDTH 1028 0
DWIDTH 10 0
BBX 6 2 1 8
BITMAP
64
88
ENDCHAR
STARTCHAR 0300
ENCODING 768
SWIDTH 0 0
DWIDTH 0 0
BBX 3 2 -7 8
BITMAP
80
60
ENDCHAR
STARTCHAR 0301
ENCODING 769
SWIDTH 0 0
DWIDTH 0 0
BBX 3 2 -6 8
BITMAP
60
80
ENDCHAR
STARTCHAR 0326
ENCODING 806
SWIDTH 0 0
DWIDTH 0 0
BBX 3 4 -7 -4
BITMAP
60
60
60
C0
ENDCHAR
STARTCHAR 0335
ENCODING 821
SWIDTH 0 0
DWIDTH 0 0
BBX 5 1 -7 4
BITMAP
F8
ENDCHAR
STARTCHAR 037A
ENCODING 890
SWIDTH 1028 0
DWIDTH 10 0
BBX 3 2 4 0
BITMAP
80
60
ENDCHAR
STARTCHAR 037E
ENCODING 894
SWIDTH 1028 0
DWIDTH 10 0
BBX 4 8 1 1
BITMAP
70
70
70
00
70
70
70
E0
ENDCHAR
STARTCHAR 0384
ENCODING 900
SWIDTH 1028 0
DWIDTH 10 0
BBX 2 2 4 8
BITMAP
40
80
ENDCHAR
STARTCHAR 0385
ENCODING 901
SWIDTH 1028 0
DWIDTH 10 0
BBX 8 2 1 8
BITMAP
8B
10
ENDCHAR
STARTCHAR 0386
ENCODING 902
SWIDTH 1028 0
DWIDTH 10 0
BBX 9 10 0 1
BITMAP
4C00
0C00
BE00
7380
7380
7380
7F80
7380
7380
7380
ENDCHAR
STARTCHAR 0387
ENCODING 903
SWIDTH 1028 0
DWIDTH 10 0
BBX 3 3 2 4
BITMAP
E0
E0
E0
ENDCHAR
STARTCHAR 0388
ENCODING 904
SWIDTH 1028 0
DWIDTH 10 0
BBX 10 10 0 1
BITMAP
7FC0
3800
B800
3800
3800
3E00
3800
3800
3800
3FC0
ENDCHAR
STARTCHAR 0389
ENCODING 905
SWIDTH 1028 0
DWIDTH 10 0
BBX 10 10 0 1
BITMAP
79C0
39C0
B9C0
39C0
39C0
3FC0
39C0
39C0
39C0
39C0
ENDCHAR
STARTCHAR 038A
ENCODING 906
SWIDTH 1028 0
DWIDTH 10 0
BBX 9 10 0 1
BITMAP
4F80
0600
8600
0600
0600
0600
0600
0600
0600
0F80
ENDCHAR
STARTCHAR 038C
ENCODING 908
SWIDTH 1028 0
DWIDTH 10 0
BBX 10 10 0 1
BITMAP
4F80
0980
B9C0
39C0
39C0
39C0
39C0
39C0
39C0
0F80
ENDCHAR
STARTCHAR 038E
ENCODING 910
SWIDTH 1028 0
DWIDTH 10 0
BBX 10 10 0 1
BITMAP
79C0
39C0
B9C0
39C0
0980
0F80
0600
0600
0600
0600
ENDCHAR
STARTCHAR 038F
ENCODING 911
SWIDTH 1028 0
DWIDTH 10 0
BBX 10 10 0 1
BITMAP
4E00
0A00
BB80
71C0
71C0
71C0
71C0
3B80
3B80
7BC0
ENDCHAR
STARTCHAR 0390
ENCODING 912
SWIDTH 1028 0
DWIDTH 10 0
BBX 7 10 0 1
BITMAP
8A
00
30
78
38
38
38
38
38
0E
ENDCHAR
STARTCHAR 0391
ENCODING 913
SWIDTH 1028 0
DWIDTH 10 0
BBX 9 10 0 1
BITMAP
3C00
7600
7600
C380
C380
C380
FF80
C380
C380
C380
ENDCHAR
STARTCHAR 0392
ENCODING 914
SWIDTH 1028 0
DWIDTH 10 0
BBX 9 10 0 1
BITMAP
FE00
C200
C380
C380
C380
FE00
C380
C380
C380
FE00
ENDCHAR
STARTCHAR 0393
ENCODING 915
SWIDTH 1028 0
DWIDTH 10 0
BBX 8 10 1 1
BITMAP
FF
E0
E0
E0
E0
E0
E0
E0
E0
E0
ENDCHAR
STARTCHAR 0394
ENCODING 916
SWIDTH 1028 0
DWIDTH 10 0
BBX 9 10 0 1
BITMAP
3C00
7600
7600
C380
C380
C380
C380
C380
C380
FF80
ENDCHAR
STARTCHAR 0395
ENCODING 917
SWIDTH 1028 0
DWIDTH 10 0
BBX 9 10 0 1
BITMAP
FF80
C000
C000
C000
C000
FE00
C000
C000
C000
FF80
ENDCHAR
STARTCHAR 0396
ENCODING 918
SWIDTH 1028 0
DWIDTH 10 0
BBX 9 10 0 1
BITMAP
FF80
0780
0780
0E00
3C00
3C00
7800
F000
F000
FF80
ENDCHAR
STARTCHAR 0397
ENCODING 919
SWIDTH 1028 0
DWIDTH 10 0
BBX 9 10 0 1
BITMAP
C380
C380
C380
C380
C380
FF80
C380
C380
C380
C380
ENDCHAR
STARTCHAR 0398
ENCODING 920
SWIDTH 1028 0
DWIDTH 10 0
BBX 9 10 0 1
BITMAP
7E00
4200
C380
C380
C380
FF80
C380
C380
C380
7E00
ENDCHAR
STARTCHAR 0399
ENCODING 921
SWIDTH 1028 0
DWIDTH 10 0
BBX 8 10 1 1
BITMAP
FF
18
18
18
18
18
18
18
18
FF
ENDCHAR
STARTCHAR 039A
ENCODING 922
SWIDTH 1028 0
DWIDTH 10 0
BBX 9 10 0 1
BITMAP
C380
C200
C600
CC00
CC00
F800
FC00
CE00
C600
C780
ENDCHAR
STARTCHAR 039B
ENCODING 923
SWIDTH 1028 0
DWIDTH 10 0
BBX 9 10 0 1
BITMAP
3C00
7600
7600
C380
C380
C380
C380
C380
C380
C380
ENDCHAR
STARTCHAR 039C
ENCODING 924
SWIDTH 1028 0
DWIDTH 10 0
BBX 9 10 0 1
BITMAP
C380
C380
F780
FF80
FF80
CB80
CB80
C380
C380
C380
ENDCHAR
STARTCHAR 039D
ENCODING 925
SWIDTH 1028 0
DWIDTH 10 0
BBX 9 10 0 1
BITMAP
C380
C380
F380
FB80
FB80
CF80
C780
C780
C380
C380
ENDCHAR
STARTCHAR 039E
ENCODING 926
SWIDTH 1028 0
DWIDTH 10 0
BBX 9 10 0 1
BITMAP
FF80
0000
0000
0000
0000
7E00
0000
0000
0000
FF80
ENDCHAR
STARTCHAR 039F
ENCODING 927
SWIDTH 1028 0
DWIDTH 10 0
BBX 9 10 0 1
BITMAP
7E00
4200
C380
C380
C380
C380
C380
C380
C380
7E00
ENDCHAR
STARTCHAR 03A0
ENCODING 928
SWIDTH 1028 0
DWIDTH 10 0
BBX 9 10 0 1
BITMAP
FF80
C380
C380
C380
C380
C380
C380
C380
C380
C380
ENDCHAR
STARTCHAR 03A1
ENCODING 929
SWIDTH 1028 0
DWIDTH 10 0
BBX 9 10 0 1
BITMAP
FE00
C200
C380
C380
C380
C380
FE00
C000
C000
C000
ENDCHAR
STARTCHAR 03A3
ENCODING 931
SWIDTH 1028 0
DWIDTH 10 0
BBX 9 10 0 1
BITMAP
FF80
7380
7380
3800
3800
0E00
3800
7380
7380
FF80
ENDCHAR
STARTCHAR 03A4
ENCODING 932
SWIDTH 1028 0
DWIDTH 10 0
BBX 8 10 1 1
BITMAP
FF
18
18
18
18
18
18
18
18
18
ENDCHAR
STARTCHAR 03A5
ENCODING 933
SWIDTH 1028 0
DWIDTH 10 0
BBX 8 10 1 1
BITMAP
E7
E7
E7
E7
64
7C
18
18
18
18
ENDCHAR
STARTCHAR 03A6
ENCODING 934
SWIDTH 1028 0
DWIDTH 10 0
BBX 9 10 0 1
BITMAP
0800
0800
7E00
CB80
CB80
CB80
CB80
7E00
0800
0800
ENDCHAR
STARTCHAR 03A7
ENCODING 935
SWIDTH 1028 0
DWIDTH 10 0
BBX 9 10 0 1
BITMAP
C380
C380
C380
7600
7600
3C00
7600
C380
C380
C380
ENDCHAR
STARTCHAR 03A8
ENCODING 936
SWIDTH 1028 0
DWIDTH 10 0
BBX 10 10 0 1
BITMAP
CDC0
CDC0
CDC0
CDC0
4D80
7F80
0C00
0C00
0C00
3E00
ENDCHAR
STARTCHAR 03A9
ENCODING 937
SWIDTH 1028 0
DWIDTH 10 0
BBX 9 10 0 1
BITMAP
3C00
7600
7600
C380
C380
C380
C380
7600
7600
F780
ENDCHAR
STARTCHAR 03AA
ENCODING 938
SWIDTH 1028 0
DWIDTH 10 0
BBX 8 10 1 1
BITMAP
E7
00
00
FF
18
18
18
18
18
FF
ENDCHAR
STARTCHAR 03AB
ENCODING 939
SWIDTH 1028 0
DWIDTH 10 0
BBX 8 10 1 1
BITMAP
E7
00
00
E7
E7
E7
7C
18
18
18
ENDCHAR
STARTCHAR 03AC
ENCODING 940
SWIDTH 1028 0
DWIDTH 10 0
BBX 9 10 0 1
BITMAP
0400
0800
0800
7F80
4380
C380
C380
C380
C380
7F80
ENDCHAR
STARTCHAR 03AD
ENCODING 941
SWIDTH 1028 0
DWIDTH 10 0
BBX 9 10 0 1
BITMAP
0400
0800
0800
7F80
4000
C000
7E00
C000
4000
7F80
ENDCHAR
STARTCHAR 03AE
ENCODING 942
SWIDTH 1028 0
DWIDTH 10 0
BBX 9 11 0 0
BITMAP
0400
0800
0800
CE00
4200
7380
7380
7380
7380
7380
0380
ENDCHAR
STARTCHAR 03AF
ENCODING 943
SWIDTH 1028 0
DWIDTH 10 0
BBX 6 10 1 1
BITMAP
10
00
60
F0
70
70
70
70
70
1C
ENDCHAR
STARTCHAR 03B0
ENCODING 944
SWIDTH 1028 0
DWIDTH 10 0
BBX 9 10 0 1
BITMAP
8A00
0000
3000
C600
4200
7380
7380
7380
7380
3E00
ENDCHAR
STARTCHAR 03B1
ENCODING 945
SWIDTH 1028 0
DWIDTH 10 0
BBX 9 7 0 1
BITMAP
7F80
4380
C380
C380
C380
C380
7F80
ENDCHAR
STARTCHAR 03B2
ENCODING 946
SWIDTH 1028 0
DWIDTH 10 0
BBX 9 11 0 0
BITMAP
7E00
4200
C380
C380
FE00
C200
C380
C380
C380
FE00
C000
ENDCHAR
STARTCHAR 03B3
ENCODING 947
SWIDTH 1028 0
DWIDTH 10 0
BBX 9 8 0 0
BITMAP
C380
7380
7380
7380
3E00
0C00
0C00
0C00
ENDCHAR
STARTCHAR 03B4
ENCODING 948
SWIDTH 1028 0
DWIDTH 10 0
BBX 9 10 0 1
BITMAP
0780
0400
0C00
0600
0600
7F80
C380
C380
C380
7E00
ENDCHAR
STARTCHAR 03B5
ENCODING 949
SWIDTH 1028 0
DWIDTH 10 0
BBX 9 7 0 1
BITMAP
7F80
4000
C000
7E00
C000
4000
7F80
ENDCHAR
STARTCHAR 03B6
ENCODING 950
SWIDTH 1028 0
DWIDTH 10 0
BBX 9 11 0 0
BITMAP
7E00
3800
3800
7000
C000
C000
C000
7E00
0200
0380
0600
ENDCHAR
STARTCHAR 03B7
ENCODING 951
SWIDTH 1028 0
DWIDTH 10 0
BBX 9 8 0 0
BITMAP
CE00
4200
7380
7380
7380
7380
7380
0380
ENDCHAR
STARTCHAR 03B8
ENCODING 952
SWIDTH 1028 0
DWIDTH 10 0
BBX 9 10 0 1
BITMAP
3C00
3400
7600
C380
C380
FF80
C380
7600
7600
3C00
ENDCHAR
STARTCHAR 03B9
ENCODING 953
SWIDTH 1028 0
DWIDTH 10 0
BBX 6 7 1 1
BITMAP
F0
70
70
70
70
70
1C
ENDCHAR
STARTCHAR 03BA
ENCODING 954
SWIDTH 1028 0
DWIDTH 10 0
BBX 9 7 0 1
BITMAP
C380
C200
C600
FC00
C600
C600
C380
ENDCHAR
STARTCHAR 03BB
ENCODING 955
SWIDTH 1028 0
DWIDTH 10 0
BBX 9 10 0 1
BITMAP
C000
4000
7000
3800
3800
3C00
7600
C380
C380
C380
ENDCHAR
STARTCHAR 03BC
ENCODING 956
SWIDTH 1028 0
DWIDTH 10 0
BBX 9 8 0 0
BITMAP
C600
C600
C600
C600
C600
C200
FB80
C000
ENDCHAR
STARTCHAR 03BD
ENCODING 957
SWIDTH 1028 0
DWIDTH 10 0
BBX 9 7 0 1
BITMAP
C380
4380
7380
7380
3E00
3E00
0C00
ENDCHAR
STARTCHAR 03BE
ENCODING 958
SWIDTH 1028 0
DWIDTH 10 0
BBX 7 11 0 0
BITMAP
FE
70
70
3C
70
70
C0
7C
04
06
0C
ENDCHAR
STARTCHAR 03BF
ENCODING 959
SWIDTH 1028 0
DWIDTH 10 0
BBX 9 7 0 1
BITMAP
7E00
4200
C380
C380
C380
C380
7E00
ENDCHAR
STARTCHAR 03C0
ENCODING 960
SWIDTH 1028 0
DWIDTH 10 0
BBX 9 7 0 1
BITMAP
FF80
7600
7600
7600
7600
7600
F380
ENDCHAR
STARTCHAR 03C1
ENCODING 961
SWIDTH 1028 0
DWIDTH 10 0
BBX 9 8 0 0
BITMAP
7E00
C380
C380
C380
FE00
C000
C000
C000
ENDCHAR
STARTCHAR 03C2
ENCODING 962
SWIDTH 1028 0
DWIDTH 10 0
BBX 9 8 0 0
BITMAP
7E00
C000
C000
C000
7E00
0200
0380
7E00
ENDCHAR
STARTCHAR 03C3
ENCODING 963
SWIDTH 1028 0
DWIDTH 10 0
BBX 9 7 0 1
BITMAP
7F80
4C00
CC00
C600
C600
C600
7C00
ENDCHAR
STARTCHAR 03C4
ENCODING 964
SWIDTH 1028 0
DWIDTH 10 0
BBX 8 7 1 1
BITMAP
FF
18
18
18
18
18
0F
ENDCHAR
STARTCHAR 03C5
ENCODING 965
SWIDTH 1028 0
DWIDTH 10 0
BBX 9 7 0 1
BITMAP
C600
4200
7380
7380
7380
7380
3E00
ENDCHAR
STARTCHAR 03C6
ENCODING 966
SWIDTH 1028 0
DWIDTH 10 0
BBX 9 8 0 0
BITMAP
4600
CB80
CB80
CB80
CB80
4A00
7E00
0800
ENDCHAR
STARTCHAR 03C7
ENCODING 967
SWIDTH 1028 0
DWIDTH 10 0
BBX 9 8 0 0
BITMAP
C380
7600
7600
3C00
7600
C380
C380
C380
ENDCHAR
STARTCHAR 03C8
ENCODING 968
SWIDTH 1028 0
DWIDTH 10 0
BBX 10 9 0 0
BITMAP
0C00
CDC0
CDC0
CDC0
CDC0
CDC0
4D80
7F80
0C00
ENDCHAR
STARTCHAR 03C9
ENCODING 969
SWIDTH 1028 0
DWIDTH 10 0
BBX 9 7 0 1
BITMAP
4200
4200
CB80
CB80
CB80
CB80
7600
ENDCHAR
STARTCHAR 03CA
ENCODING 970
SWIDTH 1028 0
DWIDTH 10 0
BBX 7 10 0 1
BITMAP
CC
00
00
78
38
38
38
38
38
0E
ENDCHAR
STARTCHAR 03CB
ENCODING 971
SWIDTH 1028 0
DWIDTH 10 0
BBX 9 10 0 1
BITMAP
7600
0000
0000
C600
4200
7380
7380
7380
7380
3E00
ENDCHAR
STARTCHAR 03CC
ENCODING 972
SWIDTH 1028 0
DWIDTH 10 0
BBX 9 10 0 1
BITMAP
0400
0800
0800
7E00
4200
C380
C380
C380
C380
7E00
ENDCHAR
STARTCHAR 03CD
ENCODING 973
SWIDTH 1028 0
DWIDTH 10 0
BBX 9 10 0 1
BITMAP
0400
0000
0800
C600
4200
7380
7380
7380
7380
3E00
ENDCHAR
STARTCHAR 03CE
ENCODING 974
SWIDTH 1028 0
DWIDTH 10 0
BBX 9 10 0 1
BITMAP
0400
0000
0800
4200
4200
CB80
CB80
CB80
CB80
7600
ENDCHAR
STARTCHAR 0400
ENCODING 1024
SWIDTH 1028 0
DWIDTH 10 0
BBX 9 10 0 1
BITMAP
3000
0800
0800
FF80
C000
C000
FE00
C000
C000
FF80
ENDCHAR
STARTCHAR 0401
ENCODING 1025
SWIDTH 1028 0
DWIDTH 10 0
BBX 9 10 0 1
BITMAP
7600
0000
0000
FF80
C000
C000
FE00
C000
C000
FF80
ENDCHAR
STARTCHAR 0402
ENCODING 1026
SWIDTH 1028 0
DWIDTH 10 0
BBX 9 11 0 0
BITMAP
FC00
7000
7000
7E00
7200
7380
7380
7380
7380
7380
0600
ENDCHAR
STARTCHAR 0403
ENCODING 1027
SWIDTH 1028 0
DWIDTH 10 0
BBX 8 10 1 1
BITMAP
08
10
10
FF
E3
E3
E0
E0
E0
E0
ENDCHAR
STARTCHAR 0404
ENCODING 1028
SWIDTH 1028 0
DWIDTH 10 0
BBX 9 10 0 1
BITMAP
3E00
3200
7380
C000
C000
FE00
C000
7380
3200
3E00
ENDCHAR
STARTCHAR 0405
ENCODING 1029
SWIDTH 1028 0
DWIDTH 10 0
BBX 9 10 0 1
BITMAP
7E00
4200
C380
C000
C000
3F80
0380
C380
4200
7E00
ENDCHAR
STARTCHAR 0406
ENCODING 1030
SWIDTH 1028 0
DWIDTH 10 0
BBX 8 10 1 1
BITMAP
FF
18
18
18
18
18
18
18
18
FF
ENDCHAR
STARTCHAR 0407
ENCODING 1031
SWIDTH 1028 0
DWIDTH 10 0
BBX 8 10 1 1
BITMAP
E7
00
00
FF
18
18
18
18
18
FF
ENDCHAR
STARTCHAR 0408
ENCODING 1032
SWIDTH 1028 0
DWIDTH 10 0
BBX 9 10 0 1
BITMAP
0380
0380
0380
0380
0380
0380
0380
C380
4200
7E00
ENDCHAR
STARTCHAR 0409
ENCODING 1033
SWIDTH 1028 0
DWIDTH 10 0
BBX 9 10 0 1
BITMAP
7C00
4C00
4C00
4F80
4D80
4D80
4D80
CD80
CD80
CF80
ENDCHAR
STARTCHAR 040A
ENCODING 1034
SWIDTH 1028 0
DWIDTH 10 0
BBX 9 10 0 1
BITMAP
CC00
CC00
CC00
CF80
CD80
FD80
CD80
CD80
CD80
CF80
ENDCHAR
STARTCHAR 040B
ENCODING 1035
SWIDTH 1028 0
DWIDTH 10 0
BBX 9 10 0 1
BITMAP
FC00
7000
7000
7E00
7200
7380
7380
7380
7380
7380
ENDCHAR
STARTCHAR 040C
ENCODING 1036
SWIDTH 1028 0
DWIDTH 10 0
BBX 9 10 0 1
BITMAP
0400
0000
0800
C380
C400
C400
FE00
C380
C380
C380
ENDCHAR
STARTCHAR 040D
ENCODING 1037
SWIDTH 1028 0
DWIDTH 10 0
BBX 9 10 0 1
BITMAP
3000
0000
0800
C380
C380
C780
CF80
FB80
FB80
F380
ENDCHAR
STARTCHAR 040E
ENCODING 1038
SWIDTH 1028 0
DWIDTH 10 0
BBX 9 11 0 0
BITMAP
7E00
0000
0000
C380
C380
C380
C380
7F80
0380
0380
7E00
ENDCHAR
STARTCHAR 040F
ENCODING 1039
SWIDTH 1028 0
DWIDTH 10 0
BBX 9 11 0 0
BITMAP
C380
C380
C380
C380
C380
C380
C380
C380
C380
FF80
0800
ENDCHAR
STARTCHAR 0410
ENCODING 1040
SWIDTH 1028 0
DWIDTH 10 0
BBX 9 10 0 1
BITMAP
3C00
7600
7600
C380
C380
C380
FF80
C380
C380
C380
ENDCHAR
STARTCHAR 0411
ENCODING 1041
SWIDTH 1028 0
DWIDTH 10 0
BBX 9 10 0 1
BITMAP
FE00
C000
C000
C000
C000
FE00
C380
C380
C380
FE00
ENDCHAR
STARTCHAR 0412
ENCODING 1042
SWIDTH 1028 0
DWIDTH 10 0
BBX 9 10 0 1
BITMAP
FE00
C200
C380
C380
C380
FE00
C380
C380
C380
FE00
ENDCHAR
STARTCHAR 0413
ENCODING 1043
SWIDTH 1028 0
DWIDTH 10 0
BBX 8 10 1 1
BITMAP
FF
E3
E3
E0
E0
E0
E0
E0
E0
E0
ENDCHAR
STARTCHAR 0414
ENCODING 1044
SWIDTH 1028 0
DWIDTH 10 0
BBX 10 11 0 0
BITMAP
3F80
3380
3380
3380
3380
3380
7380
7380
7380
FFC0
C1C0
ENDCHAR
STARTCHAR 0415
ENCODING 1045
SWIDTH 1028 0
DWIDTH 10 0
BBX 9 10 0 1
BITMAP
FF80
C000
C000
C000
C000
FE00
C000
C000
C000
FF80
ENDCHAR
STARTCHAR 0416
ENCODING 1046
SWIDTH 1028 0
DWIDTH 10 0
BBX 9 10 0 1
BITMAP
CB80
CB80
CB80
4A00
4A00
3C00
4A00
CB80
CB80
CB80
ENDCHAR
STARTCHAR 0417
ENCODING 1047
SWIDTH 1028 0
DWIDTH 10 0
BBX 9 10 0 1
BITMAP
7E00
4200
C380
0380
0380
3F80
0380
C380
4200
7E00
ENDCHAR
STARTCHAR 0418
ENCODING 1048
SWIDTH 1028 0
DWIDTH 10 0
BBX 9 10 0 1
BITMAP
C380
C380
C380
C780
C780
CF80
FB80
FB80
F380
C380
ENDCHAR
STARTCHAR 0419
ENCODING 1049
SWIDTH 1028 0
DWIDTH 10 0
BBX 9 10 0 1
BITMAP
7E00
0000
0000
C380
C380
C780
CF80
FB80
FB80
F380
ENDCHAR
STARTCHAR 041A
ENCODING 1050
SWIDTH 1028 0
DWIDTH 10 0
BBX 9 10 0 1
BITMAP
C380
C200
C600
C800
C800
FC00
C600
C600
C600
C380
ENDCHAR
STARTCHAR 041B
ENCODING 1051
SWIDTH 1028 0
DWIDTH 10 0
BBX 9 10 0 1
BITMAP
3F80
3380
3380
3380
3380
3380
7380
F380
F380
C380
ENDCHAR
STARTCHAR 041C
ENCODING 1052
SWIDTH 1028 0
DWIDTH 10 0
BBX 9 10 0 1
BITMAP
C380
C380
F780
FF80
FF80
CB80
CB80
C380
C380
C380
ENDCHAR
STARTCHAR 041D
ENCODING 1053
SWIDTH 1028 0
DWIDTH 10 0
BBX 9 10 0 1
BITMAP
C380
C380
C380
C380
C380
FF80
C380
C380
C380
C380
ENDCHAR
STARTCHAR 041E
ENCODING 1054
SWIDTH 1028 0
DWIDTH 10 0
BBX 9 10 0 1
BITMAP
7E00
4200
C380
C380
C380
C380
C380
C380
C380
7E00
ENDCHAR
STARTCHAR 041F
ENCODING 1055
SWIDTH 1028 0
DWIDTH 10 0
BBX 9 10 0 1
BITMAP
FF80
C380
C380
C380
C380
C380
C380
C380
C380
C380
ENDCHAR
STARTCHAR 0420
ENCODING 1056
SWIDTH 1028 0
DWIDTH 10 0
BBX 9 10 0 1
BITMAP
FE00
C200
C380
C380
C380
C380
FE00
C000
C000
C000
ENDCHAR
STARTCHAR 0421
ENCODING 1057
SWIDTH 1028 0
DWIDTH 10 0
BBX 9 10 0 1
BITMAP
3E00
3200
7380
C000
C000
C000
C000
7380
3200
3E00
ENDCHAR
STARTCHAR 0422
ENCODING 1058
SWIDTH 1028 0
DWIDTH 10 0
BBX 8 10 1 1
BITMAP
FF
18
18
18
18
18
18
18
18
18
ENDCHAR
STARTCHAR 0423
ENCODING 1059
SWIDTH 1028 0
DWIDTH 10 0
BBX 9 10 0 1
BITMAP
C380
C380
C380
C380
4380
7F80
0380
C380
4200
7E00
ENDCHAR
STARTCHAR 0424
ENCODING 1060
SWIDTH 1028 0
DWIDTH 10 0
BBX 9 10 0 1
BITMAP
0800
0800
7E00
CB80
CB80
CB80
CB80
7E00
0800
0800
ENDCHAR
STARTCHAR 0425
ENCODING 1061
SWIDTH 1028 0
DWIDTH 10 0
BBX 9 10 0 1
BITMAP
C380
C380
C380
7600
7600
3C00
7600
C380
C380
C380
ENDCHAR
STARTCHAR 0426
ENCODING 1062
SWIDTH 1028 0
DWIDTH 10 0
BBX 9 11 0 0
BITMAP
C600
C600
C600
C600
C600
C600
C600
C600
C600
FF80
0380
ENDCHAR
STARTCHAR 0427
ENCODING 1063
SWIDTH 1028 0
DWIDTH 10 0
BBX 9 10 0 1
BITMAP
C380
C380
C380
C380
4380
7F80
0380
0380
0380
0380
ENDCHAR
STARTCHAR 0428
ENCODING 1064
SWIDTH 1028 0
DWIDTH 10 0
BBX 9 10 0 1
BITMAP
CB80
CB80
CB80
CB80
CB80
CB80
CB80
CB80
CB80
FF80
ENDCHAR
STARTCHAR 0429
ENCODING 1065
SWIDTH 1028 0
DWIDTH 10 0
BBX 10 11 0 0
BITMAP
CB80
CB80
CB80
CB80
CB80
CB80
CB80
CB80
CB80
FFC0
01C0
ENDCHAR
STARTCHAR 042A
ENCODING 1066
SWIDTH 1028 0
DWIDTH 10 0
BBX 9 10 0 1
BITMAP
F000
7000
7000
7E00
7200
7380
7380
7380
7380
7E00
ENDCHAR
STARTCHAR 042B
ENCODING 1067
SWIDTH 1028 0
DWIDTH 10 0
BBX 9 10 0 1
BITMAP
C380
C380
C380
FB80
CB80
CB80
CB80
CB80
CB80
FB80
ENDCHAR
STARTCHAR 042C
ENCODING 1068
SWIDTH 1028 0
DWIDTH 10 0
BBX 9 10 0 1
BITMAP
C000
C000
C000
FE00
C200
C380
C380
C380
C380
FE00
ENDCHAR
STARTCHAR 042D
ENCODING 1069
SWIDTH 1028 0
DWIDTH 10 0
BBX 9 10 0 1
BITMAP
7C00
4400
C600
0380
0380
7F80
0380
C600
4400
7C00
ENDCHAR
STARTCHAR 042E
ENCODING 1070
SWIDTH 1028 0
DWIDTH 10 0
BBX 9 10 0 1
BITMAP
8E00
8A00
BB80
BB80
BB80
FB80
BB80
BB80
BB80
8E00
ENDCHAR
STARTCHAR 042F
ENCODING 1071
SWIDTH 1028 0
DWIDTH 10 0
BBX 9 10 0 1
BITMAP
7F80
4380
C380
C380
C380
F380
3F80
7380
7380
F380
ENDCHAR
STARTCHAR 0430
ENCODING 1072
SWIDTH 1028 0
DWIDTH 10 0
BBX 9 7 0 1
BITMAP
7E00
0380
0380
7F80
C380
4380
7F80
ENDCHAR
STARTCHAR 0431
ENCODING 1073
SWIDTH 1028 0
DWIDTH 10 0
BBX 9 10 0 1
BITMAP
7F80
4000
C000
CE00
C200
F380
C380
C380
C380
7E00
ENDCHAR
STARTCHAR 0432
ENCODING 1074
SWIDTH 1028 0
DWIDTH 10 0
BBX 9 7 0 1
BITMAP
FE00
C200
C380
FE00
C380
C200
FE00
ENDCHAR
STARTCHAR 0433
ENCODING 1075
SWIDTH 1028 0
DWIDTH 10 0
BBX 8 7 1 1
BITMAP
FF
E3
E3
E0
E0
E0
E0
ENDCHAR
STARTCHAR 0434
ENCODING 1076
SWIDTH 1028 0
DWIDTH 10 0
BBX 10 8 0 0
BITMAP
3F80
3380
3380
3380
7380
7380
FFC0
C1C0
ENDCHAR
STARTCHAR 0435
ENCODING 1077
SWIDTH 1028 0
DWIDTH 10 0
BBX 9 7 0 1
BITMAP
7E00
4200
C380
FF80
C000
C000
7E00
ENDCHAR
STARTCHAR 0436
ENCODING 1078
SWIDTH 1028 0
DWIDTH 10 0
BBX 9 7 0 1
BITMAP
CB80
CB80
CB80
7E00
CB80
CB80
CB80
ENDCHAR
STARTCHAR 0437
ENCODING 1079
SWIDTH 1028 0
DWIDTH 10 0
BBX 9 7 0 1
BITMAP
7E00
4200
C380
0E00
C380
4200
7E00
ENDCHAR
STARTCHAR 0438
ENCODING 1080
SWIDTH 1028 0
DWIDTH 10 0
BBX 9 7 0 1
BITMAP
C380
C380
C780
CB80
F380
C380
C380
ENDCHAR
STARTCHAR 0439
ENCODING 1081
SWIDTH 1028 0
DWIDTH 10 0
BBX 9 10 0 1
BITMAP
7E00
0000
0000
C380
C380
C780
CB80
F380
C380
C380
ENDCHAR
STARTCHAR 043A
ENCODING 1082
SWIDTH 1028 0
DWIDTH 10 0
BBX 9 7 0 1
BITMAP
C380
C400
C400
FE00
C380
C380
C380
ENDCHAR
STARTCHAR 043B
ENCODING 1083
SWIDTH 1028 0
DWIDTH 10 0
BBX 9 7 0 1
BITMAP
3F80
3380
3380
7380
F380
F380
C380
ENDCHAR
STARTCHAR 043C
ENCODING 1084
SWIDTH 1028 0
DWIDTH 10 0
BBX 9 7 0 1
BITMAP
C380
C380
F780
CB80
CB80
CB80
C380
ENDCHAR
STARTCHAR 043D
ENCODING 1085
SWIDTH 1028 0
DWIDTH 10 0
BBX 9 7 0 1
BITMAP
C380
C380
C380
FF80
C380
C380
C380
ENDCHAR
STARTCHAR 043E
ENCODING 1086
SWIDTH 1028 0
DWIDTH 10 0
BBX 9 7 0 1
BITMAP
7E00
4200
C380
C380
C380
C380
7E00
ENDCHAR
STARTCHAR 043F
ENCODING 1087
SWIDTH 1028 0
DWIDTH 10 0
BBX 9 7 0 1
BITMAP
FF80
C380
C380
C380
C380
C380
C380
ENDCHAR
STARTCHAR 0440
ENCODING 1088
SWIDTH 1028 0
DWIDTH 10 0
BBX 9 8 0 0
BITMAP
CE00
F380
C380
C380
C380
C200
FE00
C000
ENDCHAR
STARTCHAR 0441
ENCODING 1089
SWIDTH 1028 0
DWIDTH 10 0
BBX 9 7 0 1
BITMAP
7E00
4200
C380
C000
C380
4200
7E00
ENDCHAR
STARTCHAR 0442
ENCODING 1090
SWIDTH 1028 0
DWIDTH 10 0
BBX 8 7 1 1
BITMAP
FF
18
18
18
18
18
18
ENDCHAR
STARTCHAR 0443
ENCODING 1091
SWIDTH 1028 0
DWIDTH 10 0
BBX 9 8 0 0
BITMAP
C380
C380
C380
C380
7F80
0380
0380
7E00
ENDCHAR
STARTCHAR 0444
ENCODING 1092
SWIDTH 1028 0
DWIDTH 10 0
BBX 9 9 0 0
BITMAP
0800
7E00
CB80
CB80
CB80
CB80
4A00
7E00
0800
ENDCHAR
STARTCHAR 0445
ENCODING 1093
SWIDTH 1028 0
DWIDTH 10 0
BBX 9 7 0 1
BITMAP
C380
4200
7600
3C00
7600
7600
C380
ENDCHAR
STARTCHAR 0446
ENCODING 1094
SWIDTH 1028 0
DWIDTH 10 0
BBX 9 8 0 0
BITMAP
C600
C600
C600
C600
C600
C600
FF80
0380
ENDCHAR
STARTCHAR 0447
ENCODING 1095
SWIDTH 1028 0
DWIDTH 10 0
BBX 9 7 0 1
BITMAP
C380
C380
C380
7F80
0380
0380
0380
ENDCHAR
STARTCHAR 0448
ENCODING 1096
SWIDTH 1028 0
DWIDTH 10 0
BBX 9 7 0 1
BITMAP
CB80
CB80
CB80
CB80
CB80
CB80
FF80
ENDCHAR
STARTCHAR 0449
ENCODING 1097
SWIDTH 1028 0
DWIDTH 10 0
BBX 10 8 0 0
BITMAP
CB80
CB80
CB80
CB80
CB80
CB80
FFC0
01C0
ENDCHAR
STARTCHAR 044A
ENCODING 1098
SWIDTH 1028 0
DWIDTH 10 0
BBX 9 7 0 1
BITMAP
F000
7000
7000
7E00
7380
7200
7E00
ENDCHAR
STARTCHAR 044B
ENCODING 1099
SWIDTH 1028 0
DWIDTH 10 0
BBX 9 7 0 1
BITMAP
C380
C380
C380
FB80
CB80
CB80
FB80
ENDCHAR
STARTCHAR 044C
ENCODING 1100
SWIDTH 1028 0
DWIDTH 10 0
BBX 9 7 0 1
BITMAP
C000
C000
C000
FE00
C380
C200
FE00
ENDCHAR
STARTCHAR 044D
ENCODING 1101
SWIDTH 1028 0
DWIDTH 10 0
BBX 9 7 0 1
BITMAP
7E00
4200
C380
0F80
C380
4200
7E00
ENDCHAR
STARTCHAR 044E
ENCODING 1102
SWIDTH 1028 0
DWIDTH 10 0
BBX 9 7 0 1
BITMAP
8E00
8A00
BB80
FB80
BB80
BB80
8E00
ENDCHAR
STARTCHAR 044F
ENCODING 1103
SWIDTH 1028 0
DWIDTH 10 0
BBX 9 7 0 1
BITMAP
7F80
4380
C380
7F80
C380
C380
C380
ENDCHAR
STARTCHAR 0450
ENCODING 1104
SWIDTH 1028 0
DWIDTH 10 0
BBX 9 10 0 1
BITMAP
3000
0800
0800
7E00
4200
C380
FF80
C000
C000
7E00
ENDCHAR
STARTCHAR 0451
ENCODING 1105
SWIDTH 1028 0
DWIDTH 10 0
BBX 9 10 0 1
BITMAP
7600
0000
0000
7E00
4200
C380
FF80
C000
C000
7E00
ENDCHAR
STARTCHAR 0452
ENCODING 1106
SWIDTH 1028 0
DWIDTH 10 0
BBX 9 11 0 0
BITMAP
7000
7000
FC00
7000
7E00
7200
7380
7380
7380
7380
0600
ENDCHAR
STARTCHAR 0453
ENCODING 1107
SWIDTH 1028 0
DWIDTH 10 0
BBX 8 10 1 1
BITMAP
04
08
08
FF
E3
E3
E0
E0
E0
E0
ENDCHAR
STARTCHAR 0454
ENCODING 1108
SWIDTH 1028 0
DWIDTH 10 0
BBX 9 7 0 1
BITMAP
7E00
4200
C380
F800
C380
4200
7E00
ENDCHAR
STARTCHAR 0455
ENCODING 1109
SWIDTH 1028 0
DWIDTH 10 0
BBX 9 7 0 1
BITMAP
7E00
4000
C000
7E00
0380
0200
FE00
ENDCHAR
STARTCHAR 0456
ENCODING 1110
SWIDTH 1028 0
DWIDTH 10 0
BBX 8 10 1 1
BITMAP
18
00
00
78
18
18
18
18
18
FF
ENDCHAR
STARTCHAR 0457
ENCODING 1111
SWIDTH 1028 0
DWIDTH 10 0
BBX 8 10 1 1
BITMAP
EC
00
00
78
18
18
18
18
18
FF
ENDCHAR
STARTCHAR 0458
ENCODING 1112
SWIDTH 1028 0
DWIDTH 10 0
BBX 6 11 1 0
BITMAP
0C
00
00
1C
0C
0C
0C
0C
0C
0C
F8
ENDCHAR
STARTCHAR 0459
ENCODING 1113
SWIDTH 1028 0
DWIDTH 10 0
BBX 9 7 0 1
BITMAP
7C00
4C00
4F80
4D80
CD80
CD80
CF80
ENDCHAR
STARTCHAR 045A
ENCODING 1114
SWIDTH 1028 0
DWIDTH 10 0
BBX 9 7 0 1
BITMAP
CC00
CC00
CF80
FD80
CD80
CD80
CF80
ENDCHAR
STARTCHAR 045B
ENCODING 1115
SWIDTH 1028 0
DWIDTH 10 0
BBX 9 10 0 1
BITMAP
7000
7000
FC00
7000
7000
7E00
7380
7380
7380
7380
ENDCHAR
STARTCHAR 045C
ENCODING 1116
SWIDTH 1028 0
DWIDTH 10 0
BBX 9 10 0 1
BITMAP
0400
0000
0800
C380
C400
C400
FE00
C380
C380
C380
ENDCHAR
STARTCHAR 045D
ENCODING 1117
SWIDTH 1028 0
DWIDTH 10 0
BBX 9 10 0 1
BITMAP
3000
0000
0800
C380
C380
C780
CB80
F380
C380
C380
ENDCHAR
STARTCHAR 045E
ENCODING 1118
SWIDTH 1028 0
DWIDTH 10 0
BBX 9 11 0 0
BITMAP
7E00
0000
0000
C380
C380
C380
C380
7F80
0380
0380
7E00
ENDCHAR
STARTCHAR 045F
ENCODING 1119
SWIDTH 1028 0
DWIDTH 10 0
BBX 9 8 0 0
BITMAP
C380
C380
C380
C380
C380
C380
FF80
0800
ENDCHAR
STARTCHAR 0462
ENCODING 1122
SWIDTH 1028 0
DWIDTH 10 0
BBX 9 10 0 1
BITMAP
7000
7000
FC00
7000
7000
7E00
7380
7380
7380
7E00
ENDCHAR
STARTCHAR 0463
ENCODING 1123
SWIDTH 1028 0
DWIDTH 10 0
BBX 9 10 0 1
BITMAP
7000
7000
7000
FC00
7000
7000
7E00
7380
7200
7E00
ENDCHAR
STARTCHAR 046A
ENCODING 1130
SWIDTH 1028 0
DWIDTH 10 0
BBX 9 10 0 1
BITMAP
FF80
8180
8180
4200
0000
3C00
4A00
CB80
CB80
CB80
ENDCHAR
STARTCHAR 046B
ENCODING 1131
SWIDTH 1028 0
DWIDTH 10 0
BBX 9 7 0 1
BITMAP
FF80
4200
4200
3C00
CB80
CB80
CB80
ENDCHAR
STARTCHAR 0472
ENCODING 1138
SWIDTH 1028 0
DWIDTH 10 0
BBX 9 10 0 1
BITMAP
7E00
4200
C380
C380
C380
BD80
C380
C380
C380
7E00
ENDCHAR
STARTCHAR 0473
ENCODING 1139
SWIDTH 1028 0
DWIDTH 10 0
BBX 9 7 0 1
BITMAP
7E00
4200
C380
BD80
C380
C380
7E00
ENDCHAR
STARTCHAR 0474
ENCODING 1140
SWIDTH 1028 0
DWIDTH 10 0
BBX 9 10 0 1
BITMAP
C380
C380
C380
C200
C200
4200
7600
3C00
3C00
0800
ENDCHAR
STARTCHAR 0475
ENCODING 1141
SWIDTH 1028 0
DWIDTH 10 0
BBX 8 7 1 1
BITMAP
E7
E4
E4
E4
7C
7C
18
ENDCHAR
STARTCHAR 0490
ENCODING 1168
SWIDTH 1028 0
DWIDTH 10 0
BBX 8 10 1 1
BITMAP
07
07
FF
E0
E0
E0
E0
E0
E0
E0
ENDCHAR
STARTCHAR 0491
ENCODING 1169
SWIDTH 1028 0
DWIDTH 10 0
BBX 8 8 1 1
BITMAP
07
FF
E0
E0
E0
E0
E0
E0
ENDCHAR
STARTCHAR 0492
ENCODING 1170
SWIDTH 1028 0
DWIDTH 10 0
BBX 9 10 0 1
BITMAP
7F80
7180
7180
7000
7000
FC00
7000
7000
7000
7000
ENDCHAR
STARTCHAR 0493
ENCODING 1171
SWIDTH 1028 0
DWIDTH 10 0
BBX 9 7 0 1
BITMAP
7F80
7180
7180
FC00
7000
7000
7000
ENDCHAR
STARTCHAR 0494
ENCODING 1172
SWIDTH 1028 0
DWIDTH 10 0
BBX 8 11 1 0
BITMAP
FF
E3
E3
E0
FC
E4
E7
E7
E7
E7
0C
ENDCHAR
STARTCHAR 0495
ENCODING 1173
SWIDTH 1028 0
DWIDTH 10 0
BBX 8 8 1 0
BITMAP
FF
E0
E0
FC
E7
E7
E7
0C
ENDCHAR
STARTCHAR 0496
ENCODING 1174
SWIDTH 1028 0
DWIDTH 10 0
BBX 10 11 0 0
BITMAP
CB80
CB80
CB80
4A00
3C00
0800
4A00
CB80
CBC0
CBC0
01C0
ENDCHAR
STARTCHAR 0497
ENCODING 1175
SWIDTH 1028 0
DWIDTH 10 0
BBX 10 8 0 0
BITMAP
CB80
CB80
CB80
7E00
CB80
CBC0
CBC0
01C0
ENDCHAR
STARTCHAR 0498
ENCODING 1176
SWIDTH 1028 0
DWIDTH 10 0
BBX 9 11 0 0
BITMAP
7E00
4200
C380
0380
3E00
0380
0380
C380
4200
7E00
0800
ENDCHAR
STARTCHAR 0499
ENCODING 1177
SWIDTH 1028 0
DWIDTH 10 0
BBX 9 8 0 0
BITMAP
7E00
C380
0200
0E00
C380
4200
7E00
0800
ENDCHAR
STARTCHAR 049A
ENCODING 1178
SWIDTH 1028 0
DWIDTH 10 0
BBX 9 11 0 0
BITMAP
C380
C200
C600
C800
FC00
C600
C600
C600
C380
C380
0380
ENDCHAR
STARTCHAR 049B
ENCODING 1179
SWIDTH 1028 0
DWIDTH 10 0
BBX 10 8 0 0
BITMAP
C380
C400
C400
FE00
C380
C3C0
C3C0
01C0
ENDCHAR
STARTCHAR 049C
ENCODING 1180
SWIDTH 1028 0
DWIDTH 10 0
BBX 9 10 0 1
BITMAP
C380
C200
C200
CA00
CA00
FC00
CA00
C380
C380
C380
ENDCHAR
STARTCHAR 049D
ENCODING 1181
SWIDTH 1028 0
DWIDTH 10 0
BBX 9 7 0 1
BITMAP
C380
C200
CA00
FC00
CB80
CB80
C380
ENDCHAR
STARTCHAR 04A0
ENCODING 1184
SWIDTH 1028 0
DWIDTH 10 0
BBX 9 10 0 1
BITMAP
F380
7200
7200
7400
7400
7C00
7600
7600
7200
7380
ENDCHAR
STARTCHAR 04A1
ENCODING 1185
SWIDTH 1028 0
DWIDTH 10 0
BBX 9 7 0 1
BITMAP
F380
7400
7400
7E00
7380
7380
7380
ENDCHAR
STARTCHAR 04A2
ENCODING 1186
SWIDTH 1028 0
DWIDTH 10 0
BBX 10 11 0 0
BITMAP
C380
C380
C380
C380
FF80
C380
C380
C380
C3C0
C3C0
01C0
ENDCHAR
STARTCHAR 04A3
ENCODING 1187
SWIDTH 1028 0
DWIDTH 10 0
BBX 10 8 0 0
BITMAP
C380
C380
C380
FF80
C380
C3C0
C3C0
01C0
ENDCHAR
STARTCHAR 04A4
ENCODING 1188
SWIDTH 1028 0
DWIDTH 10 0
BBX 9 10 0 1
BITMAP
CF80
CD80
CD80
CC00
CC00
FC00
CC00
CC00
CC00
CC00
ENDCHAR
STARTCHAR 04A5
ENCODING 1189
SWIDTH 1028 0
DWIDTH 10 0
BBX 9 7 0 1
BITMAP
CF80
CD80
CD80
FC00
CC00
CC00
CC00
ENDCHAR
STARTCHAR 04AA
ENCODING 1194
SWIDTH 1028 0
DWIDTH 10 0
BBX 9 11 0 0
BITMAP
3E00
3200
7380
C000
C000
C000
C000
7380
3E00
3E00
0C00
ENDCHAR
STARTCHAR 04AB
ENCODING 1195
SWIDTH 1028 0
DWIDTH 10 0
BBX 9 8 0 0
BITMAP
7E00
C380
C000
C000
C380
4200
7E00
0800
ENDCHAR
STARTCHAR 04AC
ENCODING 1196
SWIDTH 1028 0
DWIDTH 10 0
BBX 8 11 1 0
BITMAP
FF
18
18
18
18
18
18
18
1C
1C
0C
ENDCHAR
STARTCHAR 04AD
ENCODING 1197
SWIDTH 1028 0
DWIDTH 10 0
BBX 8 8 1 0
BITMAP
FF
18
18
18
18
1C
1C
0C
ENDCHAR
STARTCHAR 04AE
ENCODING 1198
SWIDTH 1028 0
DWIDTH 10 0
BBX 8 10 1 1
BITMAP
E7
E7
E7
E7
64
7C
18
18
18
18
ENDCHAR
STARTCHAR 04AF
ENCODING 1199
SWIDTH 1028 0
DWIDTH 10 0
BBX 8 8 1 0
BITMAP
E7
E7
E7
E7
7C
18
18
18
ENDCHAR
STARTCHAR 04B0
ENCODING 1200
SWIDTH 1028 0
DWIDTH 10 0
BBX 8 10 1 1
BITMAP
E7
E7
E7
E7
64
7C
18
7C
18
18
ENDCHAR
STARTCHAR 04B1
ENCODING 1201
SWIDTH 1028 0
DWIDTH 10 0
BBX 8 8 1 0
BITMAP
E7
E7
E7
7C
18
18
7C
18
ENDCHAR
STARTCHAR 04B6
ENCODING 1206
SWIDTH 1028 0
DWIDTH 10 0
BBX 10 11 0 0
BITMAP
C380
C380
C380
C380
7F80
0380
0380
0380
03C0
03C0
01C0
ENDCHAR
STARTCHAR 04B7
ENCODING 1207
SWIDTH 1028 0
DWIDTH 10 0
BBX 10 8 0 0
BITMAP
C380
C380
C380
7F80
0380
03C0
03C0
01C0
ENDCHAR
STARTCHAR 04B8
ENCODING 1208
SWIDTH 1028 0
DWIDTH 10 0
BBX 9 10 0 1
BITMAP
C380
C380
C380
CB80
4B80
7F80
0B80
0380
0380
0380
ENDCHAR
STARTCHAR 04B9
ENCODING 1209
SWIDTH 1028 0
DWIDTH 10 0
BBX 9 7 0 1
BITMAP
C380
C380
CB80
7F80
0B80
0B80
0380
ENDCHAR
STARTCHAR 04BA
ENCODING 1210
SWIDTH 1028 0
DWIDTH 10 0
BBX 9 10 1 1
BITMAP
E000
E000
E000
E000
E000
FF00
E380
E380
E380
E380
ENDCHAR
STARTCHAR 04BB
ENCODING 1211
SWIDTH 1028 0
DWIDTH 10 0
BBX 9 10 0 1
BITMAP
C000
C000
C000
CE00
C200
F380
C380
C380
C380
C380
ENDCHAR
STARTCHAR 04C0
ENCODING 1216
SWIDTH 1028 0
DWIDTH 10 0
BBX 8 10 1 1
BITMAP
FF
18
18
18
18
18
18
18
18
FF
ENDCHAR
STARTCHAR 04C1
ENCODING 1217
SWIDTH 1028 0
DWIDTH 10 0
BBX 9 10 0 1
BITMAP
7E00
0000
0000
CB80
CB80
CB80
7E00
CB80
CB80
CB80
ENDCHAR
STARTCHAR 04C2
ENCODING 1218
SWIDTH 1028 0
DWIDTH 10 0
BBX 9 10 0 1
BITMAP
7E00
0000
0000
CB80
CB80
CB80
7E00
CB80
CB80
CB80
ENDCHAR
STARTCHAR 04CB
ENCODING 1227
SWIDTH 1028 0
DWIDTH 10 0
BBX 10 11 0 0
BITMAP
C380
C380
C380
C380
7F80
0380
0380
0380
03C0
03C0
01C0
ENDCHAR
STARTCHAR 04CC
ENCODING 1228
SWIDTH 1028 0
DWIDTH 10 0
BBX 10 8 0 0
BITMAP
C380
C380
C380
7F80
0380
03C0
03C0
01C0
ENDCHAR
STARTCHAR 04CF
ENCODING 1231
SWIDTH 1028 0
DWIDTH 10 0
BBX 8 10 1 1
BITMAP
78
18
18
18
18
18
18
18
18
FF
ENDCHAR
STARTCHAR 04D0
ENCODING 1232
SWIDTH 1028 0
DWIDTH 10 0
BBX 9 10 0 1
BITMAP
7E00
0000
0000
3C00
7600
7600
C380
FF80
C380
C380
ENDCHAR
STARTCHAR 04D1
ENCODING 1233
SWIDTH 1028 0
DWIDTH 10 0
BBX 9 10 0 1
BITMAP
7E00
0000
0000
7E00
0380
0380
7F80
C380
4380
7F80
ENDCHAR
STARTCHAR 04D2
ENCODING 1234
SWIDTH 1028 0
DWIDTH 10 0
BBX 9 10 0 1
BITMAP
7600
0000
0000
3C00
7600
7600
C380
FF80
C380
C380
ENDCHAR
STARTCHAR 04D3
ENCODING 1235
SWIDTH 1028 0
DWIDTH 10 0
BBX 9 10 0 1
BITMAP
7600
0000
0000
7E00
0380
0380
7F80
C380
4380
7F80
ENDCHAR
STARTCHAR 04D4
ENCODING 1236
SWIDTH 1028 0
DWIDTH 10 0
BBX 9 10 0 1
BITMAP
3F80
7C00
7C00
CC00
CC00
CF80
FC00
CC00
CC00
CF80
ENDCHAR
STARTCHAR 04D5
ENCODING 1237
SWIDTH 1028 0
DWIDTH 10 0
BBX 9 7 0 1
BITMAP
7E00
0A00
0B80
7E00
C800
4800
7E00
ENDCHAR
STARTCHAR 04D6
ENCODING 1238
SWIDTH 1028 0
DWIDTH 10 0
BBX 9 10 0 1
BITMAP
7E00
0000
0000
FF80
C000
C000
FE00
C000
C000
FF80
ENDCHAR
STARTCHAR 04D7
ENCODING 1239
SWIDTH 1028 0
DWIDTH 10 0
BBX 9 10 0 1
BITMAP
7E00
0000
0000
7E00
4200
C380
FF80
C000
C000
7E00
ENDCHAR
STARTCHAR 04D8
ENCODING 1240
SWIDTH 1028 0
DWIDTH 10 0
BBX 9 10 0 1
BITMAP
7E00
4200
C380
0380
0380
FF80
C380
C380
C380
7E00
ENDCHAR
STARTCHAR 04D9
ENCODING 1241
SWIDTH 1028 0
DWIDTH 10 0
BBX 9 7 0 1
BITMAP
7E00
0200
0380
FF80
C380
C380
7E00
ENDCHAR
STARTCHAR 04DC
ENCODING 1244
SWIDTH 1028 0
DWIDTH 10 0
BBX 9 10 0 1
BITMAP
7600
0000
0000
CB80
CB80
CB80
7E00
CB80
CB80
CB80
ENDCHAR
STARTCHAR 04DD
ENCODING 1245
SWIDTH 1028 0
DWIDTH 10 0
BBX 9 10 0 1
BITMAP
7600
0000
0000
CB80
CB80
CB80
7E00
CB80
CB80
CB80
ENDCHAR
STARTCHAR 04DE
ENCODING 1246
SWIDTH 1028 0
DWIDTH 10 0
BBX 9 10 0 1
BITMAP
7600
0000
0000
7E00
4200
C380
0E00
C380
4200
7E00
ENDCHAR
STARTCHAR 04DF
ENCODING 1247
SWIDTH 1028 0
DWIDTH 10 0
BBX 9 10 0 1
BITMAP
7600
0000
0000
7E00
4200
C380
0E00
C380
4200
7E00
ENDCHAR
STARTCHAR 04E2
ENCODING 1250
SWIDTH 1028 0
DWIDTH 10 0
BBX 9 10 0 1
BITMAP
7E00
0000
0000
C380
C380
C780
CF80
FB80
FB80
F380
ENDCHAR
STARTCHAR 04E3
ENCODING 1251
SWIDTH 1028 0
DWIDTH 10 0
BBX 9 10 0 1
BITMAP
7E00
0000
0000
C380
C380
C780
CB80
F380
C380
C380
ENDCHAR
STARTCHAR 04E4
ENCODING 1252
SWIDTH 1028 0
DWIDTH 10 0
BBX 9 10 0 1
BITMAP
7600
0000
0000
C380
C380
C780
CF80
FB80
FB80
F380
ENDCHAR
STARTCHAR 04E5
ENCODING 1253
SWIDTH 1028 0
DWIDTH 10 0
BBX 9 10 0 1
BITMAP
7600
0000
0000
C380
C380
C780
CB80
F380
C380
C380
ENDCHAR
STARTCHAR 04E6
ENCODING 1254
SWIDTH 1028 0
DWIDTH 10 0
BBX 9 10 0 1
BITMAP
7600
0000
0000
7E00
4200
C380
C380
C380
C380
7E00
ENDCHAR
STARTCHAR 04E7
ENCODING 1255
SWIDTH 1028 0
DWIDTH 10 0
BBX 9 10 0 1
BITMAP
7600
0000
0000
7E00
4200
C380
C380
C380
C380
7E00
ENDCHAR
STARTCHAR 04E8
ENCODING 1256
SWIDTH 1028 0
DWIDTH 10 0
BBX 9 10 0 1
BITMAP
7E00
4200
C380
C380
C380
BD80
C380
C380
C380
7E00
ENDCHAR
STARTCHAR 04E9
ENCODING 1257
SWIDTH 1028 0
DWIDTH 10 0
BBX 9 7 0 1
BITMAP
7E00
4200
C380
BD80
C380
C380
7E00
ENDCHAR
STARTCHAR 04EE
ENCODING 1262
SWIDTH 1028 0
DWIDTH 10 0
BBX 9 10 0 1
BITMAP
7E00
0000
0000
C380
C380
C380
7F80
0380
0200
7E00
ENDCHAR
STARTCHAR 04EF
ENCODING 1263
SWIDTH 1028 0
DWIDTH 10 0
BBX 9 11 0 0
BITMAP
7E00
0000
0000
C380
C380
C380
C380
7F80
0380
0380
7E00
ENDCHAR
STARTCHAR 04F0
ENCODING 1264
SWIDTH 1028 0
DWIDTH 10 0
BBX 9 10 0 1
BITMAP
7600
0000
0000
C380
C380
C380
7F80
0380
0200
7E00
ENDCHAR
STARTCHAR 04F1
ENCODING 1265
SWIDTH 1028 0
DWIDTH 10 0
BBX 9 11 0 0
BITMAP
7600
0000
0000
C380
C380
C380
C380
7F80
0380
0380
7E00
ENDCHAR
STARTCHAR 04F2
ENCODING 1266
SWIDTH 1028 0
DWIDTH 10 0
BBX 9 10 0 1
BITMAP
3200
0000
4400
C380
C380
C380
7F80
0380
0200
7E00
ENDCHAR
STARTCHAR 04F3
ENCODING 1267
SWIDTH 1028 0
DWIDTH 10 0
BBX 9 11 0 0
BITMAP
3200
0000
4400
C380
C380
C380
C380
7F80
0380
0380
7E00
ENDCHAR
STARTCHAR 04F4
ENCODING 1268
SWIDTH 1028 0
DWIDTH 10 0
BBX 9 10 0 1
BITMAP
7600
0000
0000
C380
C380
C380
7F80
0380
0380
0380
ENDCHAR
STARTCHAR 04F5
ENCODING 1269
SWIDTH 1028 0
DWIDTH 10 0
BBX 9 10 0 1
BITMAP
7600
0000
0000
C380
C380
C380
7F80
0380
0380
0380
ENDCHAR
STARTCHAR 04F6
ENCODING 1270
SWIDTH 1028 0
DWIDTH 10 0
BBX 8 11 1 0
BITMAP
FF
E3
E3
E0
E0
E0
E0
E0
F0
F0
70
ENDCHAR
STARTCHAR 04F7
ENCODING 1271
SWIDTH 1028 0
DWIDTH 10 0
BBX 8 8 1 0
BITMAP
FF
E3
E3
E0
E0
F0
F0
70
ENDCHAR
STARTCHAR 04F8
ENCODING 1272
SWIDTH 1028 0
DWIDTH 10 0
BBX 9 10 0 1
BITMAP
7600
0000
0000
C380
C380
FB80
CB80
CB80
CB80
FB80
ENDCHAR
STARTCHAR 04F9
ENCODING 1273
SWIDTH 1028 0
DWIDTH 10 0
BBX 9 10 0 1
BITMAP
7600
0000
0000
C380
C380
C380
FB80
CB80
CB80
FB80
ENDCHAR
STARTCHAR 051A
ENCODING 1306
SWIDTH 1028 0
DWIDTH 10 0
BBX 9 10 0 1
BITMAP
7E00
4200
C380
C380
C380
C380
CF80
C600
C600
7D80
ENDCHAR
STARTCHAR 051B
ENCODING 1307
SWIDTH 1028 0
DWIDTH 10 0
BBX 9 8 0 0
BITMAP
7F80
C380
C380
C380
7F80
0380
0380
0380
ENDCHAR
STARTCHAR 051C
ENCODING 1308
SWIDTH 1028 0
DWIDTH 10 0
BBX 9 10 0 1
BITMAP
CB80
CB80
CB80
CB80
CB80
CB80
FF80
F780
F780
4200
ENDCHAR
STARTCHAR 051D
ENCODING 1309
SWIDTH 1028 0
DWIDTH 10 0
BBX 9 7 0 1
BITMAP
CB80
CB80
CB80
CB80
CB80
4200
7600
ENDCHAR
STARTCHAR 0524
ENCODING 1316
SWIDTH 1028 0
DWIDTH 10 0
BBX 10 11 0 0
BITMAP
FF80
C380
C380
C380
C380
C380
C380
C380
C3C0
C3C0
01C0
ENDCHAR
STARTCHAR 0525
ENCODING 1317
SWIDTH 1028 0
DWIDTH 10 0
BBX 10 8 0 0
BITMAP
FF80
C380
C380
C380
C380
C3C0
C3C0
01C0
ENDCHAR
STARTCHAR 2013
ENCODING 8211
SWIDTH 1028 0
DWIDTH 10 0
BBX 9 1 0 6
BITMAP
FF80
ENDCHAR
STARTCHAR 2014
ENCODING 8212
SWIDTH 1028 0
DWIDTH 10 0
BBX 10 1 0 6
BITMAP
FFC0
ENDCHAR
STARTCHAR 2015
ENCODING 8213
SWIDTH 1028 0
DWIDTH 10 0
BBX 9 1 0 6
BITMAP
FF80
ENDCHAR
STARTCHAR 2018
ENCODING 8216
SWIDTH 1028 0
DWIDTH 10 0
BBX 4 4 2 7
BITMAP
30
E0
E0
E0
ENDCHAR
STARTCHAR 2019
ENCODING 8217
SWIDTH 1028 0
DWIDTH 10 0
BBX 4 4 2 7
BITMAP
30
30
30
E0
ENDCHAR
STARTCHAR 201A
ENCODING 8218
SWIDTH 1028 0
DWIDTH 10 0
BBX 4 4 2 1
BITMAP
30
30
30
E0
ENDCHAR
STARTCHAR 201C
ENCODING 8220
SWIDTH 1028 0
DWIDTH 10 0
BBX 8 4 1 7
BITMAP
77
EC
EC
EC
ENDCHAR
STARTCHAR 201D
ENCODING 8221
SWIDTH 1028 0
DWIDTH 10 0
BBX 8 4 1 7
BITMAP
77
77
77
EC
ENDCHAR
STARTCHAR 201E
ENCODING 8222
SWIDTH 1028 0
DWIDTH 10 0
BBX 7 4 0 1
BITMAP
76
76
76
CC
ENDCHAR
STARTCHAR 2020
ENCODING 8224
SWIDTH 1028 0
DWIDTH 10 0
BBX 8 10 1 1
BITMAP
18
18
18
FF
18
18
18
18
18
18
ENDCHAR
STARTCHAR 2021
ENCODING 8225
SWIDTH 1028 0
DWIDTH 10 0
BBX 8 10 1 1
BITMAP
18
18
18
FF
18
18
FF
18
18
18
ENDCHAR
STARTCHAR 2022
ENCODING 8226
SWIDTH 1028 0
DWIDTH 10 0
BBX 5 5 2 3
BITMAP
30
F8
F8
F8
30
ENDCHAR
STARTCHAR 2026
ENCODING 8230
SWIDTH 1028 0
DWIDTH 10 0
BBX 9 3 0 1
BITMAP
8980
8980
8980
ENDCHAR
STARTCHAR 2030
ENCODING 8240
SWIDTH 1028 0
DWIDTH 10 0
BBX 10 10 0 1
BITMAP
7180
3000
B200
C400
0000
0800
37C0
4AC0
0A00
8F80
ENDCHAR
STARTCHAR 2039
ENCODING 8249
SWIDTH 1028 0
DWIDTH 10 0
BBX 5 6 2 3
BITMAP
18
30
E0
30
30
18
ENDCHAR
STARTCHAR 203A
ENCODING 8250
SWIDTH 1028 0
DWIDTH 10 0
BBX 5 6 1 3
BITMAP
E0
70
18
70
70
E0
ENDCHAR
STARTCHAR 2044
ENCODING 8260
SWIDTH 1028 0
DWIDTH 10 0
BBX 9 10 0 1
BITMAP
0180
0000
0200
0400
0000
0800
3000
4000
0000
8000
ENDCHAR
STARTCHAR 2074
ENCODING 8308
SWIDTH 1028 0
DWIDTH 10 0
BBX 4 5 2 6
BITMAP
10
10
30
F0
10
ENDCHAR
STARTCHAR 20AC
ENCODING 8364
SWIDTH 1028 0
DWIDTH 10 0
BBX 9 10 0 1
BITMAP
0E00
0A00
3B80
FC00
7000
7000
FC00
3B80
0A00
0E00
ENDCHAR
STARTCHAR 20AE
ENCODING 8366
SWIDTH 1028 0
DWIDTH 10 0
BBX 8 10 1 1
BITMAP
FF
18
18
1C
18
78
1C
78
18
18
ENDCHAR
STARTCHAR 20AF
ENCODING 8367
SWIDTH 1028 0
DWIDTH 10 0
BBX 9 11 0 0
BITMAP
7000
8800
8800
8A00
8D80
8D80
8D80
8D80
8400
F600
0400
ENDCHAR
STARTCHAR 20B4
ENCODING 8372
SWIDTH 1028 0
DWIDTH 10 0
BBX 9 10 0 1
BITMAP
7C00
0600
0600
FF80
0000
0000
FF80
7000
7000
3E00
ENDCHAR
STARTCHAR 20B8
ENCODING 8376
SWIDTH 1028 0
DWIDTH 10 0
BBX 8 10 1 1
BITMAP
FF
00
00
FF
18
18
18
18
18
18
ENDCHAR
STARTCHAR 20BD
ENCODING 8381
SWIDTH 1028 0
DWIDTH 10 0
BBX 10 10 0 1
BITMAP
7F80
7180
71C0
71C0
71C0
FF80
7000
FC00
7000
7000
ENDCHAR
STARTCHAR 2116
ENCODING 8470
SWIDTH 1028 0
DWIDTH 10 0
BBX 9 10 0 1
BITMAP
C200
8000
B580
B580
B580
B580
B200
B000
B000
B780
ENDCHAR
STARTCHAR 2122
ENCODING 8482
SWIDTH 1028 0
DWIDTH 10 0
BBX 8 5 1 5
BITMAP
FF
EF
6F
6B
6B
ENDCHAR
STARTCHAR 2190
ENCODING 8592
SWIDTH 1028 0
DWIDTH 10 0
BBX 10 9 0 1
BITMAP
0800
0800
3800
7FC0
FFC0
7FC0
3800
3800
0800
ENDCHAR
STARTCHAR 2191
ENCODING 8593
SWIDTH 1028 0
DWIDTH 10 0
BBX 9 10 0 0
BITMAP
0800
0C00
3C00
7E00
FF80
3C00
3C00
3C00
3C00
3C00
ENDCHAR
STARTCHAR 2192
ENCODING 8594
SWIDTH 1028 0
DWIDTH 10 0
BBX 10 9 0 1
BITMAP
0400
0600
0600
FF80
FFC0
FF80
0600
0600
0400
ENDCHAR
STARTCHAR 2193
ENCODING 8595
SWIDTH 1028 0
DWIDTH 10 0
BBX 9 10 0 0
BITMAP
3C00
3C00
3C00
3C00
3C00
FF80
7E00
7E00
3C00
0800
ENDCHAR
STARTCHAR 2202
ENCODING 8706
SWIDTH 1028 0
DWIDTH 10 0
BBX 9 9 0 1
BITMAP
7C00
4600
C600
0380
7F80
C380
C380
C380
7E00
ENDCHAR
STARTCHAR 2206
ENCODING 8710
SWIDTH 1028 0
DWIDTH 10 0
BBX 9 9 0 1
BITMAP
3C00
3600
7600
C380
C380
C380
C380
C380
FF80
ENDCHAR
STARTCHAR 220F
ENCODING 8719
SWIDTH 1028 0
DWIDTH 10 0
BBX 9 9 0 1
BITMAP
FF80
C380
C380
C380
C380
C380
C380
C380
C380
ENDCHAR
STARTCHAR 2211
ENCODING 8721
SWIDTH 1028 0
DWIDTH 10 0
BBX 9 9 0 1
BITMAP
FF80
F380
7380
3800
0E00
3800
7380
7380
FF80
ENDCHAR
STARTCHAR 2215
ENCODING 8725
SWIDTH 1028 0
DWIDTH 10 0
BBX 9 10 0 1
BITMAP
0180
0000
0200
0400
0000
0800
3000
4000
0000
8000
ENDCHAR
STARTCHAR 221A
ENCODING 8730
SWIDTH 1028 0
DWIDTH 10 0
BBX 9 9 0 1
BITMAP
0F80
0C00
0C00
0C00
0C00
CC00
7C00
7C00
3C00
ENDCHAR
STARTCHAR 221E
ENCODING 8734
SWIDTH 1028 0
DWIDTH 10 0
BBX 9 5 0 2
BITMAP
7600
8980
8980
7600
7600
ENDCHAR
STARTCHAR 222B
ENCODING 8747
SWIDTH 1028 0
DWIDTH 10 0
BBX 8 10 1 0
BITMAP
0C
0B
1B
18
18
18
18
18
98
70
ENDCHAR
STARTCHAR 2248
ENCODING 8776
SWIDTH 1028 0
DWIDTH 10 0
BBX 7 7 0 2
BITMAP
72
72
8C
00
72
8C
8C
ENDCHAR
STARTCHAR 2260
ENCODING 8800
SWIDTH 1028 0
DWIDTH 10 0
BBX 9 9 0 1
BITMAP
0180
0380
0200
FF80
0800
FF80
4000
4000
8000
ENDCHAR
STARTCHAR 2264
ENCODING 8804
SWIDTH 1028 0
DWIDTH 10 0
BBX 5 9 2 1
BITMAP
18
10
30
E0
30
18
00
00
F8
ENDCHAR
STARTCHAR 2265
ENCODING 8805
SWIDTH 1028 0
DWIDTH 10 0
BBX 5 9 2 1
BITMAP
E0
F0
30
18
30
E0
00
00
F8
ENDCHAR
STARTCHAR 25B2
ENCODING 9650
SWIDTH 1028 0
DWIDTH 10 0
BBX 9 9 0 1
BITMAP
0800
0800
0800
3C00
3C00
7E00
7E00
7E00
FF80
ENDCHAR
STARTCHAR 25B6
ENCODING 9654
SWIDTH 1028 0
DWIDTH 10 0
BBX 9 9 0 1
BITMAP
8000
F000
F000
FC00
FF80
FC00
F000
F000
8000
ENDCHAR
STARTCHAR 25BC
ENCODING 9660
SWIDTH 1028 0
DWIDTH 10 0
BBX 9 9 0 1
BITMAP
FF80
FE00
7E00
7E00
3C00
3C00
0800
0800
0800
ENDCHAR
STARTCHAR 25C0
ENCODING 9664
SWIDTH 1028 0
DWIDTH 10 0
BBX 9 9 0 1
BITMAP
0180
0180
0780
3F80
FF80
3F80
0780
0780
0180
ENDCHAR
STARTCHAR 25CA
ENCODING 9674
SWIDTH 1028 0
DWIDTH 10 0
BBX 9 9 0 1
BITMAP
0800
3C00
3400
4200
8180
4200
3400
3400
0800
ENDCHAR
STARTCHAR 2605
ENCODING 9733
SWIDTH 1028 0
DWIDTH 10 0
BBX 9 9 0 1
BITMAP
0800
0800
0800
FF80
7E00
3C00
7600
7600
4200
ENDCHAR
STARTCHAR 2606
ENCODING 9734
SWIDTH 1028 0
DWIDTH 10 0
BBX 9 9 0 1
BITMAP
0800
0800
0800
F780
4200
3400
7E00
7E00
4200
ENDCHAR
STARTCHAR 2660
ENCODING 9824
SWIDTH 1028 0
DWIDTH 10 0
BBX 9 9 0 1
BITMAP
0800
0C00
3C00
7E00
FF80
FF80
3C00
3C00
7E00
ENDCHAR
STARTCHAR 2663
ENCODING 9827
SWIDTH 1028 0
DWIDTH 10 0
BBX 8 9 1 1
BITMAP
18
18
18
E7
E7
18
18
18
7C
ENDCHAR
STARTCHAR 2665
ENCODING 9829
SWIDTH 1028 0
DWIDTH 10 0
BBX 9 9 0 1
BITMAP
7600
7780
FF80
FF80
FF80
7E00
3C00
3C00
0800
ENDCHAR
STARTCHAR 2666
ENCODING 9830
SWIDTH 1028 0
DWIDTH 10 0
BBX 9 9 0 1
BITMAP
0800
0C00
3C00
7E00
FF80
7E00
3C00
3C00
0800
ENDCHAR
STARTCHAR 266A
ENCODING 9834
SWIDTH 1028 0
DWIDTH 10 0
BBX 9 9 0 1
BITMAP
0800
0C00
0C00
0A00
0980
7A00
F800
F800
7000
ENDCHAR
STARTCHAR F100
ENCODING 61696
SWIDTH 1028 0
DWIDTH 10 0
BBX 8 9 1 1
BITMAP
FF
83
83
FB
E3
FF
EF
EF
FF
ENDCHAR
STARTCHAR F101
ENCODING 61697
SWIDTH 1028 0
DWIDTH 10 0
BBX 6 3 1 1
BITMAP
1C
1C
FC
ENDCHAR
STARTCHAR F8FF
ENCODING 63743
SWIDTH 1028 0
DWIDTH 10 0
BBX 10 9 0 1
BITMAP
0400
7F80
7B80
FEC0
FEC0
FDC0
7F80
7F80
3600
ENDCHAR
STARTCHAR FB01
ENCODING 64257
SWIDTH 1028 0
DWIDTH 10 0
BBX 9 10 0 1
BITMAP
3C00
3000
7000
FF80
7380
7380
7380
7380
7380
7380
ENDCHAR
STARTCHAR FB02
ENCODING 64258
SWIDTH 1028 0
DWIDTH 10 0
BBX 9 10 0 1
BITMAP
3F80
3380
7380
FF80
7380
7380
7380
7380
7380
7380
ENDCHAR
ENDFONT
